slab_no1-roman_regular.ufo
<glyph name="exclam" format="1">
  <advance width="233"/>
  <unicode hex="0021"/>
  <outline>
    <contour>
      <point x="89" y="217" type="line"/>
      <point x="153" y="217" type="line"/>
      <point x="175" y="727" type="line"/>
      <point x="64" y="727" type="line"/>
    </contour>
    <component base="period"/>
  </outline>
</glyph>
<glyph name="quotedbl" format="1">
  <advance width="328"/>
  <unicode hex="0022"/>
  <outline>
    <contour>
      <point x="42" y="701" type="line"/>
      <point x="53" y="500" type="line"/>
      <point x="126" y="500" type="line"/>
      <point x="134" y="701" type="line"/>
    </contour>
    <contour>
      <point x="192" y="701" type="line"/>
      <point x="203" y="500" type="line"/>
      <point x="276" y="500" type="line"/>
      <point x="284" y="701" type="line"/>
    </contour>
  </outline>
</glyph>
<glyph name="numbersign" format="1">
  <advance width="750"/>
  <unicode hex="0023"/>
  <outline>
    <contour>
      <point x="396" y="0" type="line"/>
      <point x="478" y="0" type="line"/>
      <point x="631" y="699" type="line"/>
      <point x="549" y="699" type="line"/>
    </contour>
    <contour>
      <point x="146" y="0" type="line"/>
      <point x="228" y="0" type="line"/>
      <point x="381" y="699" type="line"/>
      <point x="299" y="699" type="line"/>
    </contour>
    <contour>
      <point x="156" y="444" type="line"/>
      <point x="671" y="444" type="line"/>
      <point x="671" y="520" type="line"/>
      <point x="156" y="520" type="line"/>
    </contour>
    <contour>
      <point x="106" y="195" type="line"/>
      <point x="621" y="195" type="line"/>
      <point x="621" y="271" type="line"/>
      <point x="106" y="271" type="line"/>
    </contour>
  </outline>
</glyph>
<glyph name="dollar" format="1">
  <advance width="584"/>
  <unicode hex="0024"/>
  <outline>
    <contour>
      <point x="245" y="-130" type="line"/>
      <point x="319" y="-130" type="line"/>
      <point x="319" y="799" type="line"/>
      <point x="245" y="799" type="line"/>
    </contour>
    <contour>
      <point x="188" y="76"/>
      <point x="112" y="154"/>
      <point x="112" y="250" type="curve"/>
      <point x="26" y="250" type="line"/>
      <point x="25" y="3" type="line"/>
      <point x="112" y="3" type="line"/>
      <point x="112" y="85" type="line"/>
      <point x="129" y="58"/>
      <point x="192" y="-12"/>
      <point x="304" y="-14" type="curve"/>
      <point x="402" y="-14"/>
      <point x="559" y="34"/>
      <point x="559" y="189" type="curve" smooth="yes"/>
      <point x="559" y="487"/>
      <point x="131" y="299"/>
      <point x="128" y="493" type="curve" smooth="yes"/>
      <point x="127" y="564"/>
      <point x="187" y="613"/>
      <point x="270" y="613" type="curve" smooth="yes"/>
      <point x="374" y="613"/>
      <point x="439" y="534"/>
      <point x="439" y="438" type="curve"/>
      <point x="525" y="438" type="line"/>
      <point x="525" y="682" type="line"/>
      <point x="439" y="682" type="line"/>
      <point x="439" y="577" type="line"/>
      <point x="427" y="633"/>
      <point x="346" y="700"/>
      <point x="248" y="700" type="curve" smooth="yes"/>
      <point x="138" y="700"/>
      <point x="37" y="626"/>
      <point x="37" y="493" type="curve" smooth="yes"/>
      <point x="37" y="189"/>
      <point x="468" y="387"/>
      <point x="468" y="189" type="curve" smooth="yes"/>
      <point x="468" y="102"/>
      <point x="372" y="76"/>
      <point x="291" y="76" type="curve"/>
    </contour>
  </outline>
</glyph>
<glyph name="percent" format="1">
  <advance width="769"/>
  <unicode hex="0025"/>
  <outline>
    <contour>
      <point x="194" y="-18" type="line"/>
      <point x="649" y="680" type="line"/>
      <point x="571" y="726" type="line"/>
      <point x="120" y="25" type="line"/>
    </contour>
    <contour>
      <point x="478" y="-12"/>
      <point x="405" y="61"/>
      <point x="405" y="150" type="curve" smooth="yes"/>
      <point x="405" y="239"/>
      <point x="478" y="312"/>
      <point x="567" y="312" type="curve" smooth="yes"/>
      <point x="656" y="312"/>
      <point x="729" y="239"/>
      <point x="729" y="150" type="curve" smooth="yes"/>
      <point x="729" y="61"/>
      <point x="656" y="-12"/>
      <point x="567" y="-12" type="curve" smooth="yes"/>
    </contour>
    <contour>
      <point x="614" y="63"/>
      <point x="654" y="102"/>
      <point x="654" y="150" type="curve" smooth="yes"/>
      <point x="654" y="198"/>
      <point x="614" y="237"/>
      <point x="567" y="237" type="curve" smooth="yes"/>
      <point x="519" y="237"/>
      <point x="480" y="198"/>
      <point x="480" y="150" type="curve" smooth="yes"/>
      <point x="480" y="102"/>
      <point x="519" y="63"/>
      <point x="567" y="63" type="curve" smooth="yes"/>
    </contour>
    <contour>
      <point x="113" y="400"/>
      <point x="40" y="473"/>
      <point x="40" y="562" type="curve" smooth="yes"/>
      <point x="40" y="651"/>
      <point x="113" y="724"/>
      <point x="202" y="724" type="curve" smooth="yes"/>
      <point x="291" y="724"/>
      <point x="364" y="651"/>
      <point x="364" y="562" type="curve" smooth="yes"/>
      <point x="364" y="473"/>
      <point x="291" y="400"/>
      <point x="202" y="400" type="curve" smooth="yes"/>
    </contour>
    <contour>
      <point x="250" y="476"/>
      <point x="288" y="514"/>
      <point x="288" y="562" type="curve" smooth="yes"/>
      <point x="288" y="610"/>
      <point x="250" y="648"/>
      <point x="202" y="648" type="curve" smooth="yes"/>
      <point x="154" y="648"/>
      <point x="116" y="610"/>
      <point x="116" y="562" type="curve" smooth="yes"/>
      <point x="116" y="514"/>
      <point x="154" y="476"/>
      <point x="202" y="476" type="curve" smooth="yes"/>
    </contour>
  </outline>
</glyph>
<glyph name="ampersand" format="1">
  <advance width="767"/>
  <unicode hex="0026"/>
  <outline>
    <contour>
      <point x="20" y="48"/>
      <point x="120" y="-14"/>
      <point x="265" y="-14" type="curve" smooth="yes"/>
      <point x="352" y="-14"/>
      <point x="434" y="30"/>
      <point x="499" y="105" type="curve"/>
      <point x="615" y="-5" type="line"/>
      <point x="723" y="-5" type="line"/>
      <point x="723" y="69" type="line"/>
      <point x="655" y="69" type="line"/>
      <point x="621" y="101"/>
      <point x="584" y="136"/>
      <point x="547" y="171" type="curve"/>
      <point x="555" y="186" type="line"/>
      <point x="632" y="327" type="line"/>
      <point x="747" y="327" type="line"/>
      <point x="747" y="401" type="line"/>
      <point x="576" y="401" type="line"/>
      <point x="483" y="232" type="line"/>
      <point x="346" y="362" type="line"/>
      <point x="409" y="389"/>
      <point x="466" y="467"/>
      <point x="466" y="544" type="curve" smooth="yes"/>
      <point x="466" y="646"/>
      <point x="381" y="699"/>
      <point x="282" y="699" type="curve" smooth="yes"/>
      <point x="181" y="699"/>
      <point x="94" y="646"/>
      <point x="94" y="544" type="curve" smooth="yes"/>
      <point x="94" y="487"/>
      <point x="137" y="439"/>
      <point x="180" y="406" type="curve"/>
      <point x="90" y="377"/>
      <point x="20" y="288"/>
      <point x="20" y="185" type="curve" smooth="yes"/>
    </contour>
    <contour>
      <point x="114" y="264"/>
      <point x="174" y="323"/>
      <point x="245" y="345" type="curve"/>
      <point x="431" y="165" type="line"/>
      <point x="392" y="118"/>
      <point x="338" y="78"/>
      <point x="265" y="78" type="curve" smooth="yes"/>
      <point x="181" y="78"/>
      <point x="114" y="103"/>
      <point x="114" y="186" type="curve" smooth="yes"/>
    </contour>
    <contour>
      <point x="182" y="605"/>
      <point x="228" y="625"/>
      <point x="282" y="625" type="curve" smooth="yes"/>
      <point x="334" y="625"/>
      <point x="378" y="605"/>
      <point x="378" y="544" type="curve" smooth="yes"/>
      <point x="378" y="491"/>
      <point x="333" y="435"/>
      <point x="287" y="419" type="curve"/>
      <point x="285" y="421" type="line"/>
      <point x="211" y="481"/>
      <point x="182" y="513"/>
      <point x="182" y="544" type="curve" smooth="yes"/>
    </contour>
  </outline>
</glyph>
<glyph name="quotesingle" format="1">
  <advance width="192"/>
  <unicode hex="0027"/>
  <outline>
    <contour>
      <point x="50" y="701" type="line"/>
      <point x="61" y="500" type="line"/>
      <point x="134" y="500" type="line"/>
      <point x="142" y="701" type="line"/>
    </contour>
  </outline>
</glyph>
<glyph name="parenleft" format="1">
  <advance width="391"/>
  <unicode hex="0028"/>
  <outline>
    <contour>
      <point x="310" y="765" type="line"/>
      <point x="227" y="693"/>
      <point x="75" y="518"/>
      <point x="75" y="262" type="curve" smooth="yes"/>
      <point x="75" y="14"/>
      <point x="202" y="-161"/>
      <point x="310" y="-259" type="curve"/>
      <point x="366" y="-201" type="line"/>
      <point x="307" y="-131"/>
      <point x="177" y="19"/>
      <point x="177" y="262" type="curve" smooth="yes"/>
      <point x="177" y="498"/>
      <point x="318" y="650"/>
      <point x="366" y="708" type="curve"/>
    </contour>
  </outline>
</glyph>
<glyph name="parenright" format="1">
  <advance width="386"/>
  <unicode hex="0029"/>
  <outline>
    <contour>
      <point x="73" y="650"/>
      <point x="214" y="498"/>
      <point x="214" y="262" type="curve" smooth="yes"/>
      <point x="214" y="19"/>
      <point x="84" y="-131"/>
      <point x="25" y="-201" type="curve"/>
      <point x="81" y="-259" type="line"/>
      <point x="189" y="-161"/>
      <point x="316" y="14"/>
      <point x="316" y="262" type="curve" smooth="yes"/>
      <point x="316" y="518"/>
      <point x="164" y="693"/>
      <point x="81" y="765" type="curve"/>
      <point x="25" y="708" type="line"/>
    </contour>
  </outline>
</glyph>
<glyph name="asterisk" format="1">
  <advance width="381"/>
  <unicode hex="002A"/>
  <outline>
    <contour>
      <point x="338" y="453" type="line"/>
      <point x="251" y="538" type="line"/>
      <point x="365" y="570" type="line"/>
      <point x="329" y="655" type="line"/>
      <point x="226" y="599" type="line"/>
      <point x="245" y="716" type="line"/>
      <point x="139" y="716" type="line"/>
      <point x="156" y="601" type="line"/>
      <point x="52" y="655" type="line"/>
      <point x="16" y="570" type="line"/>
      <point x="128" y="537" type="line"/>
      <point x="43" y="454" type="line"/>
      <point x="119" y="390" type="line"/>
      <point x="191" y="497" type="line"/>
      <point x="259" y="392" type="line"/>
    </contour>
  </outline>
</glyph>
<glyph name="plus" format="1">
  <advance width="417"/>
  <unicode hex="002B"/>
  <outline>
    <contour>
      <point x="20" y="283" type="line"/>
      <point x="397" y="283" type="line"/>
      <point x="397" y="365" type="line"/>
      <point x="20" y="365" type="line"/>
    </contour>
    <contour>
      <point x="168" y="507" type="line"/>
      <point x="168" y="130" type="line"/>
      <point x="250" y="130" type="line"/>
      <point x="250" y="507" type="line"/>
    </contour>
  </outline>
</glyph>
<glyph name="comma" format="1">
  <advance width="213"/>
  <unicode hex="002C"/>
  <outline>
    <contour>
      <point x="142" y="-12"/>
      <point x="166" y="17"/>
      <point x="164" y="34" type="curve" smooth="yes"/>
      <point x="157" y="86"/>
      <point x="129" y="109"/>
      <point x="97" y="105" type="curve" smooth="yes"/>
      <point x="63" y="101"/>
      <point x="39" y="73"/>
      <point x="42" y="39" type="curve" smooth="yes"/>
      <point x="45" y="16"/>
      <point x="76" y="-19"/>
      <point x="109" y="-15" type="curve" smooth="yes"/>
    </contour>
    <contour>
      <point x="148" y="-135"/>
      <point x="181" y="-66"/>
      <point x="164" y="34" type="curve"/>
      <point x="53" y="14" type="line"/>
      <point x="88" y="-30"/>
      <point x="105" y="-91"/>
      <point x="63" y="-141" type="curve"/>
      <point x="75" y="-153"/>
      <point x="89" y="-166"/>
      <point x="102" y="-177" type="curve"/>
    </contour>
  </outline>
</glyph>
<glyph name="hyphen" format="1">
  <advance width="390"/>
  <unicode hex="002D"/>
  <outline>
    <contour>
      <point x="50" y="263" type="line"/>
      <point x="340" y="263" type="line"/>
      <point x="340" y="345" type="line"/>
      <point x="50" y="345" type="line"/>
    </contour>
  </outline>
</glyph>
<glyph name="period" format="1">
  <advance width="233"/>
  <unicode hex="002E"/>
  <outline>
    <contour>
      <point x="153" y="-7"/>
      <point x="183" y="22"/>
      <point x="183" y="60" type="curve" smooth="yes"/>
      <point x="183" y="97"/>
      <point x="153" y="126"/>
      <point x="117" y="126" type="curve" smooth="yes"/>
      <point x="80" y="126"/>
      <point x="50" y="97"/>
      <point x="50" y="60" type="curve" smooth="yes"/>
      <point x="50" y="22"/>
      <point x="80" y="-7"/>
      <point x="117" y="-7" type="curve" smooth="yes"/>
    </contour>
  </outline>
</glyph>
<glyph name="slash" format="1">
  <advance width="466"/>
  <unicode hex="002F"/>
  <outline>
    <contour>
      <point x="134" y="-126" type="line"/>
      <point x="426" y="789" type="line"/>
      <point x="344" y="818" type="line"/>
      <point x="50" y="-97" type="line"/>
    </contour>
  </outline>
</glyph>
<glyph name="zero" format="1">
  <advance width="583"/>
  <unicode hex="0030"/>
  <outline>
    <contour>
      <point x="533" y="595"/>
      <point x="434" y="699"/>
      <point x="291" y="699" type="curve" smooth="yes"/>
      <point x="152" y="699"/>
      <point x="50" y="595"/>
      <point x="50" y="344" type="curve"/>
      <point x="50" y="99"/>
      <point x="151" y="-12"/>
      <point x="291" y="-12" type="curve" smooth="yes"/>
      <point x="436" y="-12"/>
      <point x="533" y="99"/>
      <point x="533" y="344" type="curve" smooth="yes"/>
    </contour>
    <contour>
      <point x="444" y="201"/>
      <point x="407" y="68"/>
      <point x="291" y="72" type="curve" smooth="yes"/>
      <point x="178" y="76"/>
      <point x="139" y="206"/>
      <point x="139" y="344" type="curve"/>
      <point x="139" y="507"/>
      <point x="178" y="617"/>
      <point x="291" y="617" type="curve" smooth="yes"/>
      <point x="405" y="617"/>
      <point x="444" y="507"/>
      <point x="444" y="344" type="curve" smooth="yes"/>
    </contour>
  </outline>
</glyph>
<glyph name="one" format="1">
  <advance width="463"/>
  <unicode hex="0031"/>
  <outline>
    <contour>
      <point x="88" y="514" type="line"/>
      <point x="225" y="606" type="line"/>
      <point x="193" y="616" type="line"/>
      <point x="193" y="74" type="line"/>
      <point x="61" y="74" type="line"/>
      <point x="61" y="0" type="line"/>
      <point x="413" y="0" type="line"/>
      <point x="413" y="74" type="line"/>
      <point x="281" y="74" type="line"/>
      <point x="281" y="680" type="line"/>
      <point x="193" y="680" type="line"/>
      <point x="48" y="577" type="line"/>
    </contour>
  </outline>
</glyph>
<glyph name="two" format="1">
  <advance width="533"/>
  <unicode hex="0032"/>
  <outline>
    <contour>
      <point x="46" y="608" type="line"/>
      <point x="104" y="659"/>
      <point x="161" y="699"/>
      <point x="245" y="699" type="curve" smooth="yes"/>
      <point x="433" y="699"/>
      <point x="532" y="511"/>
      <point x="385" y="336" type="curve"/>
      <point x="163" y="74" type="line"/>
      <point x="483" y="74" type="line"/>
      <point x="483" y="0" type="line"/>
      <point x="50" y="0" type="line"/>
      <point x="50" y="75" type="line"/>
      <point x="316" y="385" type="line"/>
      <point x="392" y="481"/>
      <point x="379" y="611"/>
      <point x="244" y="611" type="curve" smooth="yes"/>
      <point x="194" y="611"/>
      <point x="155" y="592"/>
      <point x="94" y="542" type="curve"/>
    </contour>
  </outline>
</glyph>
<glyph name="three" format="1">
  <advance width="563"/>
  <unicode hex="0033"/>
  <outline>
    <contour>
      <point x="221" y="448" type="line"/>
      <point x="370" y="605" type="line"/>
      <point x="94" y="605" type="line"/>
      <point x="94" y="680" type="line"/>
      <point x="478" y="680" type="line"/>
      <point x="478" y="605" type="line"/>
      <point x="325" y="445" type="line"/>
      <point x="457" y="429"/>
      <point x="513" y="357"/>
      <point x="513" y="223" type="curve" smooth="yes"/>
      <point x="513" y="62"/>
      <point x="408" y="-15"/>
      <point x="272" y="-15" type="curve" smooth="yes"/>
      <point x="172" y="-15"/>
      <point x="91" y="39"/>
      <point x="50" y="155" type="curve"/>
      <point x="129" y="192" type="line"/>
      <point x="152" y="120"/>
      <point x="201" y="66"/>
      <point x="271" y="66" type="curve" smooth="yes"/>
      <point x="368" y="66"/>
      <point x="425" y="137"/>
      <point x="425" y="224" type="curve" smooth="yes"/>
      <point x="425" y="320"/>
      <point x="390" y="373"/>
      <point x="221" y="373" type="curve"/>
    </contour>
  </outline>
</glyph>
<glyph name="four" format="1">
  <advance width="610"/>
  <unicode hex="0034"/>
  <outline>
    <contour>
      <point x="358" y="397" type="line"/>
      <point x="358" y="74" type="line"/>
      <point x="267" y="74" type="line"/>
      <point x="267" y="0" type="line"/>
      <point x="533" y="0" type="line"/>
      <point x="533" y="74" type="line"/>
      <point x="442" y="74" type="line"/>
      <point x="442" y="397" type="line"/>
    </contour>
    <contour>
      <point x="390" y="722" type="line"/>
      <point x="50" y="245" type="line"/>
      <point x="50" y="171" type="line"/>
      <point x="560" y="171" type="line"/>
      <point x="560" y="245" type="line"/>
      <point x="84" y="245" type="line"/>
      <point x="125" y="214" type="line"/>
      <point x="457" y="670" type="line"/>
    </contour>
  </outline>
</glyph>
<glyph name="five" format="1">
  <advance width="563"/>
  <unicode hex="0035"/>
  <outline>
    <contour>
      <point x="102" y="680" type="line"/>
      <point x="462" y="680" type="line"/>
      <point x="462" y="605" type="line"/>
      <point x="182" y="605" type="line"/>
      <point x="157" y="358" type="line"/>
      <point x="74" y="372" type="line"/>
    </contour>
    <contour>
      <point x="163" y="428" type="line"/>
      <point x="182" y="453"/>
      <point x="225" y="472"/>
      <point x="282" y="472" type="curve" smooth="yes"/>
      <point x="398" y="472"/>
      <point x="513" y="407"/>
      <point x="513" y="240" type="curve" smooth="yes"/>
      <point x="513" y="62"/>
      <point x="408" y="-15"/>
      <point x="272" y="-15" type="curve" smooth="yes"/>
      <point x="172" y="-15"/>
      <point x="91" y="39"/>
      <point x="50" y="155" type="curve"/>
      <point x="129" y="192" type="line"/>
      <point x="152" y="120"/>
      <point x="201" y="66"/>
      <point x="271" y="66" type="curve" smooth="yes"/>
      <point x="368" y="66"/>
      <point x="425" y="137"/>
      <point x="425" y="241" type="curve" smooth="yes"/>
      <point x="425" y="328"/>
      <point x="361" y="391"/>
      <point x="273" y="391" type="curve" smooth="yes"/>
      <point x="217" y="391"/>
      <point x="174" y="372"/>
      <point x="157" y="358" type="curve"/>
    </contour>
  </outline>
</glyph>
<glyph name="six" format="1">
  <advance width="573"/>
  <unicode hex="0036"/>
  <outline>
    <contour>
      <point x="50" y="99"/>
      <point x="151" y="-12"/>
      <point x="291" y="-12" type="curve" smooth="yes"/>
      <point x="422" y="-12"/>
      <point x="523" y="62"/>
      <point x="523" y="234" type="curve" smooth="yes"/>
      <point x="523" y="394"/>
      <point x="422" y="457"/>
      <point x="311" y="457" type="curve" smooth="yes"/>
      <point x="217" y="457"/>
      <point x="163" y="417"/>
      <point x="140" y="380" type="curve"/>
      <point x="147" y="523"/>
      <point x="205" y="617"/>
      <point x="318" y="617" type="curve" smooth="yes"/>
      <point x="379" y="617"/>
      <point x="421" y="591"/>
      <point x="451" y="569" type="curve"/>
      <point x="499" y="637" type="line"/>
      <point x="474" y="657"/>
      <point x="412" y="699"/>
      <point x="318" y="699" type="curve" smooth="yes"/>
      <point x="170" y="699"/>
      <point x="50" y="595"/>
      <point x="50" y="344" type="curve" smooth="yes"/>
    </contour>
    <contour>
      <point x="164" y="323"/>
      <point x="215" y="373"/>
      <point x="291" y="373" type="curve" smooth="yes"/>
      <point x="386" y="373"/>
      <point x="433" y="335"/>
      <point x="433" y="234" type="curve" smooth="yes"/>
      <point x="433" y="134"/>
      <point x="384" y="72"/>
      <point x="291" y="72" type="curve" smooth="yes"/>
      <point x="193" y="72"/>
      <point x="151" y="172"/>
      <point x="141" y="289" type="curve"/>
    </contour>
  </outline>
</glyph>
<glyph name="seven" format="1">
  <advance width="541"/>
  <unicode hex="0037"/>
  <outline>
    <contour>
      <point x="50" y="606" type="line"/>
      <point x="393" y="606" type="line"/>
      <point x="127" y="0" type="line"/>
      <point x="224" y="0" type="line"/>
      <point x="491" y="606" type="line"/>
      <point x="491" y="680" type="line"/>
      <point x="50" y="680" type="line"/>
    </contour>
  </outline>
</glyph>
<glyph name="eight" format="1">
  <advance width="579"/>
  <unicode hex="0038"/>
  <outline>
    <contour>
      <point x="50" y="67"/>
      <point x="138" y="-15"/>
      <point x="287" y="-15" type="curve" smooth="yes"/>
      <point x="438" y="-15"/>
      <point x="529" y="68"/>
      <point x="529" y="190" type="curve" smooth="yes"/>
      <point x="529" y="272"/>
      <point x="479" y="318"/>
      <point x="406" y="356" type="curve"/>
      <point x="472" y="386"/>
      <point x="494" y="444"/>
      <point x="494" y="515" type="curve" smooth="yes"/>
      <point x="494" y="619"/>
      <point x="420" y="699"/>
      <point x="287" y="699" type="curve" smooth="yes"/>
      <point x="155" y="699"/>
      <point x="80" y="619"/>
      <point x="80" y="515" type="curve" smooth="yes"/>
      <point x="80" y="448"/>
      <point x="108" y="406"/>
      <point x="167" y="374" type="curve"/>
      <point x="86" y="336"/>
      <point x="50" y="266"/>
      <point x="50" y="190" type="curve" smooth="yes"/>
    </contour>
    <contour>
      <point x="142" y="252"/>
      <point x="175" y="313"/>
      <point x="260" y="329" type="curve"/>
      <point x="408" y="275"/>
      <point x="437" y="255"/>
      <point x="437" y="190" type="curve" smooth="yes"/>
      <point x="437" y="109"/>
      <point x="388" y="67"/>
      <point x="287" y="67" type="curve" smooth="yes"/>
      <point x="187" y="67"/>
      <point x="142" y="108"/>
      <point x="142" y="190" type="curve" smooth="yes"/>
    </contour>
    <contour>
      <point x="173" y="578"/>
      <point x="206" y="625"/>
      <point x="287" y="625" type="curve" smooth="yes"/>
      <point x="369" y="625"/>
      <point x="401" y="578"/>
      <point x="401" y="515" type="curve" smooth="yes"/>
      <point x="401" y="450"/>
      <point x="376" y="404"/>
      <point x="307" y="396" type="curve"/>
      <point x="193" y="437"/>
      <point x="173" y="455"/>
      <point x="173" y="515" type="curve" smooth="yes"/>
    </contour>
  </outline>
</glyph>
<glyph name="less" format="1">
  <advance width="519"/>
  <unicode hex="003C"/>
  <outline>
    <contour>
      <point x="30" y="271" type="line"/>
      <point x="489" y="464" type="line"/>
      <point x="457" y="540" type="line"/>
      <point x="30" y="359" type="line"/>
    </contour>
    <contour>
      <point x="457" y="73" type="line"/>
      <point x="489" y="149" type="line"/>
      <point x="30" y="342" type="line"/>
      <point x="30" y="254" type="line"/>
    </contour>
  </outline>
</glyph>
<glyph name="equal" format="1">
  <advance width="537"/>
  <unicode hex="003D"/>
  <outline>
    <contour>
      <point x="80" y="201" type="line"/>
      <point x="457" y="201" type="line"/>
      <point x="457" y="283" type="line"/>
      <point x="80" y="283" type="line"/>
    </contour>
    <contour>
      <point x="80" y="365" type="line"/>
      <point x="457" y="365" type="line"/>
      <point x="457" y="447" type="line"/>
      <point x="80" y="447" type="line"/>
    </contour>
  </outline>
</glyph>
<glyph name="greater" format="1">
  <advance width="519"/>
  <unicode hex="003E"/>
  <outline>
    <contour>
      <point x="62" y="540" type="line"/>
      <point x="30" y="464" type="line"/>
      <point x="489" y="271" type="line"/>
      <point x="489" y="359" type="line"/>
    </contour>
    <contour>
      <point x="489" y="342" type="line"/>
      <point x="30" y="149" type="line"/>
      <point x="62" y="73" type="line"/>
      <point x="489" y="254" type="line"/>
    </contour>
  </outline>
</glyph>
<glyph name="question" format="1">
  <advance width="437"/>
  <unicode hex="003F"/>
  <outline>
    <contour>
      <point x="81" y="606" type="line"/>
      <point x="116" y="626"/>
      <point x="156" y="639"/>
      <point x="197" y="639" type="curve" smooth="yes"/>
      <point x="273" y="639"/>
      <point x="316" y="604"/>
      <point x="316" y="560" type="curve" smooth="yes"/>
      <point x="316" y="468"/>
      <point x="129" y="490"/>
      <point x="133" y="278" type="curve" smooth="yes"/>
      <point x="134" y="221" type="line"/>
      <point x="220" y="221" type="line"/>
      <point x="220" y="288" type="line" smooth="yes"/>
      <point x="220" y="439"/>
      <point x="407" y="404"/>
      <point x="407" y="560" type="curve" smooth="yes"/>
      <point x="407" y="659"/>
      <point x="332" y="715"/>
      <point x="199" y="715" type="curve" smooth="yes"/>
      <point x="123" y="715"/>
      <point x="71" y="696"/>
      <point x="30" y="665" type="curve"/>
    </contour>
    <component base="period" xOffset="66"/>
  </outline>
</glyph>
<glyph name="at" format="1">
  <advance width="917"/>
  <unicode hex="0040"/>
  <outline>
    <contour>
      <point x="543" y="61"/>
      <point x="494" y="-9"/>
      <point x="414" y="-9" type="curve" smooth="yes"/>
      <point x="299" y="-9"/>
      <point x="227" y="87"/>
      <point x="241" y="200" type="curve" smooth="yes"/>
      <point x="256" y="322"/>
      <point x="357" y="421"/>
      <point x="460" y="421" type="curve" smooth="yes"/>
      <point x="528" y="421"/>
      <point x="559" y="397"/>
      <point x="582" y="364" type="curve"/>
      <point x="572" y="283" type="line"/>
      <point x="556" y="309"/>
      <point x="535" y="339"/>
      <point x="473" y="339" type="curve" smooth="yes"/>
      <point x="388" y="339"/>
      <point x="346" y="280"/>
      <point x="337" y="209" type="curve" smooth="yes"/>
      <point x="328" y="132"/>
      <point x="361" y="78"/>
      <point x="443" y="78" type="curve" smooth="yes"/>
      <point x="481" y="78"/>
      <point x="541" y="137"/>
      <point x="553" y="164" type="curve"/>
      <point x="555" y="87" type="line"/>
    </contour>
    <contour>
      <point x="644" y="-121" type="line"/>
      <point x="604" y="-169"/>
      <point x="535" y="-216"/>
      <point x="414" y="-216" type="curve"/>
      <point x="191" y="-216"/>
      <point x="34" y="-37"/>
      <point x="50" y="203" type="curve" smooth="yes"/>
      <point x="67" y="452"/>
      <point x="237" y="637"/>
      <point x="486" y="637" type="curve" smooth="yes"/>
      <point x="744" y="637"/>
      <point x="884" y="441"/>
      <point x="866" y="222" type="curve" smooth="yes"/>
      <point x="852" y="53"/>
      <point x="769" y="4"/>
      <point x="674" y="4" type="curve" smooth="yes"/>
      <point x="581" y="4"/>
      <point x="536" y="56"/>
      <point x="539" y="117" type="curve"/>
      <point x="561" y="238"/>
      <point x="563" y="313"/>
      <point x="576" y="411" type="curve"/>
      <point x="656" y="411" type="line"/>
      <point x="624" y="145" type="line"/>
      <point x="620" y="104"/>
      <point x="643" y="71"/>
      <point x="678" y="71" type="curve" smooth="yes"/>
      <point x="719" y="71"/>
      <point x="767" y="114"/>
      <point x="778" y="222" type="curve" smooth="yes"/>
      <point x="796" y="400"/>
      <point x="711" y="561"/>
      <point x="486" y="561" type="curve" smooth="yes"/>
      <point x="274" y="561"/>
      <point x="159" y="422"/>
      <point x="141" y="203" type="curve" smooth="yes"/>
      <point x="124" y="-13"/>
      <point x="256" y="-142"/>
      <point x="415" y="-142" type="curve"/>
      <point x="506" y="-142"/>
      <point x="560" y="-108"/>
      <point x="591" y="-75" type="curve"/>
    </contour>
  </outline>
</glyph>
<glyph name="A" format="1">
  <advance width="772"/>
  <unicode hex="0041"/>
  <outline>
    <contour>
      <point x="288" y="317" type="line"/>
      <point x="406" y="673" type="line"/>
      <point x="367" y="673" type="line"/>
      <point x="486" y="318" type="line"/>
      <point x="565" y="82" type="line"/>
      <point x="483" y="82" type="line"/>
      <point x="483" y="0" type="line"/>
      <point x="736" y="0" type="line"/>
      <point x="736" y="82" type="line"/>
      <point x="657" y="82" type="line"/>
      <point x="453" y="699" type="line"/>
      <point x="212" y="699" type="line"/>
      <point x="212" y="617" type="line"/>
      <point x="297" y="617" type="line"/>
      <point x="115" y="82" type="line"/>
      <point x="36" y="82" type="line"/>
      <point x="36" y="0" type="line"/>
      <point x="302" y="0" type="line"/>
      <point x="302" y="82" type="line"/>
      <point x="210" y="82" type="line"/>
    </contour>
    <contour>
      <point x="236" y="236" type="line"/>
      <point x="571" y="236" type="line"/>
      <point x="571" y="318" type="line"/>
      <point x="236" y="318" type="line"/>
    </contour>
    <contour>
      <point x="695" y="10" type="move" name="ogonek"/>
    </contour>
    <contour>
      <point x="386" y="0" type="move" name="bottom"/>
    </contour>
    <contour>
      <point x="388" y="699" type="move" name="top"/>
    </contour>
  </outline>
</glyph>
<glyph name="B" format="1">
  <advance width="606"/>
  <unicode hex="0042"/>
  <outline>
    <contour>
      <point x="346" y="0" type="line" smooth="yes"/>
      <point x="489" y="0"/>
      <point x="566" y="78"/>
      <point x="566" y="203" type="curve" smooth="yes"/>
      <point x="566" y="328"/>
      <point x="473" y="360"/>
      <point x="438" y="367" type="curve"/>
      <point x="462" y="376"/>
      <point x="533" y="404"/>
      <point x="533" y="511" type="curve" smooth="yes"/>
      <point x="533" y="644"/>
      <point x="439" y="699"/>
      <point x="328" y="699" type="curve" smooth="yes"/>
      <point x="30" y="699" type="line"/>
      <point x="30" y="617" type="line"/>
      <point x="109" y="617" type="line"/>
      <point x="109" y="82" type="line"/>
      <point x="30" y="82" type="line"/>
      <point x="30" y="0" type="line"/>
    </contour>
    <contour>
      <point x="201" y="617" type="line"/>
      <point x="308" y="617" type="line" smooth="yes"/>
      <point x="398" y="617"/>
      <point x="438" y="590"/>
      <point x="438" y="511" type="curve" smooth="yes"/>
      <point x="438" y="441"/>
      <point x="398" y="405"/>
      <point x="325" y="405" type="curve" smooth="yes"/>
      <point x="185" y="405" type="line"/>
      <point x="185" y="323" type="line"/>
      <point x="329" y="323" type="line" smooth="yes"/>
      <point x="405" y="323"/>
      <point x="467" y="284"/>
      <point x="467" y="203" type="curve" smooth="yes"/>
      <point x="467" y="130"/>
      <point x="431" y="82"/>
      <point x="330" y="82" type="curve" smooth="yes"/>
      <point x="201" y="82" type="line"/>
    </contour>
  </outline>
</glyph>
<glyph name="C" format="1">
  <advance width="700"/>
  <unicode hex="0043"/>
  <outline>
    <contour>
      <point x="574" y="190" type="line"/>
      <point x="543" y="157"/>
      <point x="497" y="69"/>
      <point x="355" y="69" type="curve" smooth="yes"/>
      <point x="204" y="69"/>
      <point x="132" y="215"/>
      <point x="132" y="361" type="curve"/>
      <point x="132" y="517"/>
      <point x="223" y="630"/>
      <point x="355" y="630" type="curve" smooth="yes"/>
      <point x="467" y="630"/>
      <point x="534" y="559"/>
      <point x="534" y="455" type="curve"/>
      <point x="534" y="594" type="line"/>
      <point x="534" y="620"/>
      <point x="490" y="716"/>
      <point x="353" y="716" type="curve" smooth="yes"/>
      <point x="186" y="716"/>
      <point x="40" y="590"/>
      <point x="40" y="361" type="curve"/>
      <point x="40" y="122"/>
      <point x="166" y="-17"/>
      <point x="353" y="-17" type="curve" smooth="yes"/>
      <point x="492" y="-17"/>
      <point x="583" y="48"/>
      <point x="640" y="125" type="curve"/>
    </contour>
    <contour>
      <point x="534" y="455" type="line"/>
      <point x="620" y="455" type="line"/>
      <point x="620" y="699" type="line"/>
      <point x="534" y="699" type="line"/>
    </contour>
    <contour>
      <point x="534" y="455" type="line"/>
      <point x="620" y="455" type="line"/>
      <point x="620" y="699" type="line"/>
      <point x="534" y="699" type="line"/>
    </contour>
  </outline>
</glyph>
<glyph name="D" format="1">
  <advance width="668"/>
  <unicode hex="0044"/>
  <outline>
    <contour>
      <point x="30" y="82" type="line"/>
      <point x="30" y="0" type="line"/>
      <point x="314" y="0" type="line" smooth="yes"/>
      <point x="541" y="0"/>
      <point x="628" y="146"/>
      <point x="628" y="361" type="curve" smooth="yes"/>
      <point x="628" y="590"/>
      <point x="503" y="699"/>
      <point x="302" y="699" type="curve" smooth="yes"/>
      <point x="30" y="699" type="line"/>
      <point x="30" y="617" type="line"/>
      <point x="286" y="617" type="line"/>
      <point x="477" y="617"/>
      <point x="536" y="499"/>
      <point x="536" y="361" type="curve" smooth="yes"/>
      <point x="536" y="246"/>
      <point x="517" y="84"/>
      <point x="306" y="82" type="curve"/>
    </contour>
    <contour>
      <point x="201" y="66" type="line"/>
      <point x="201" y="633" type="line"/>
      <point x="109" y="633" type="line"/>
      <point x="109" y="66" type="line"/>
    </contour>
  </outline>
</glyph>
<glyph name="E" format="1">
  <advance width="596"/>
  <unicode hex="0045"/>
  <outline>
    <contour>
      <point x="185" y="323" type="line"/>
      <point x="415" y="323" type="line"/>
      <point x="415" y="405" type="line"/>
      <point x="185" y="405" type="line"/>
    </contour>
    <contour>
      <point x="201" y="617" type="line"/>
      <point x="470" y="617" type="line"/>
      <point x="470" y="531" type="line"/>
      <point x="556" y="531" type="line"/>
      <point x="556" y="699" type="line"/>
      <point x="30" y="699" type="line"/>
      <point x="30" y="617" type="line"/>
      <point x="109" y="617" type="line"/>
      <point x="109" y="82" type="line"/>
      <point x="30" y="82" type="line"/>
      <point x="30" y="0" type="line"/>
      <point x="566" y="0" type="line"/>
      <point x="566" y="176" type="line"/>
      <point x="480" y="176" type="line"/>
      <point x="480" y="82" type="line"/>
      <point x="201" y="82" type="line"/>
    </contour>
  </outline>
</glyph>
<glyph name="F" format="1">
  <advance width="575"/>
  <unicode hex="0046"/>
  <outline>
    <contour>
      <point x="194" y="297" type="line"/>
      <point x="419" y="297" type="line"/>
      <point x="419" y="380" type="line"/>
      <point x="194" y="380" type="line"/>
    </contour>
    <contour>
      <point x="312" y="0" type="line"/>
      <point x="312" y="82" type="line"/>
      <point x="210" y="82" type="line"/>
      <point x="210" y="617" type="line"/>
      <point x="463" y="617" type="line"/>
      <point x="463" y="531" type="line"/>
      <point x="555" y="531" type="line"/>
      <point x="555" y="699" type="line"/>
      <point x="30" y="699" type="line"/>
      <point x="30" y="617" type="line"/>
      <point x="118" y="617" type="line"/>
      <point x="118" y="82" type="line"/>
      <point x="30" y="82" type="line"/>
      <point x="30" y="0" type="line"/>
    </contour>
  </outline>
</glyph>
<glyph name="G" format="1">
  <advance width="748"/>
  <unicode hex="0047"/>
  <outline>
    <contour>
      <point x="572" y="190" type="line"/>
      <point x="565" y="183"/>
      <point x="538" y="223"/>
      <point x="538" y="209" type="curve" smooth="yes"/>
      <point x="538" y="116"/>
      <point x="457" y="69"/>
      <point x="355" y="69" type="curve" smooth="yes"/>
      <point x="198" y="69"/>
      <point x="132" y="218"/>
      <point x="132" y="361" type="curve"/>
      <point x="132" y="509"/>
      <point x="219" y="630"/>
      <point x="355" y="630" type="curve" smooth="yes"/>
      <point x="467" y="630"/>
      <point x="534" y="554"/>
      <point x="534" y="465" type="curve"/>
      <point x="534" y="594" type="line"/>
      <point x="534" y="620"/>
      <point x="467" y="716"/>
      <point x="353" y="716" type="curve" smooth="yes"/>
      <point x="186" y="716"/>
      <point x="40" y="590"/>
      <point x="40" y="361" type="curve"/>
      <point x="40" y="122"/>
      <point x="166" y="-17"/>
      <point x="353" y="-17" type="curve" smooth="yes"/>
      <point x="482" y="-17"/>
      <point x="540" y="59"/>
      <point x="597" y="136" type="curve"/>
    </contour>
    <contour>
      <point x="534" y="465" type="line"/>
      <point x="620" y="465" type="line"/>
      <point x="620" y="699" type="line"/>
      <point x="534" y="699" type="line"/>
    </contour>
    <contour>
      <point x="427" y="243" type="line"/>
      <point x="537" y="243" type="line"/>
      <point x="537" y="74" type="line"/>
      <point x="560" y="0" type="line"/>
      <point x="629" y="0" type="line"/>
      <point x="629" y="243" type="line"/>
      <point x="691" y="243" type="line"/>
      <point x="691" y="325" type="line" smooth="yes"/>
      <point x="427" y="325" type="line"/>
    </contour>
  </outline>
</glyph>
<glyph name="H" format="1">
  <advance width="720"/>
  <unicode hex="0048"/>
  <outline>
    <contour>
      <point x="165" y="324" type="line"/>
      <point x="552" y="324" type="line"/>
      <point x="552" y="406" type="line"/>
      <point x="165" y="406" type="line"/>
    </contour>
    <contour>
      <point x="515" y="82" type="line"/>
      <point x="432" y="82" type="line"/>
      <point x="432" y="0" type="line"/>
      <point x="690" y="0" type="line"/>
      <point x="690" y="82" type="line"/>
      <point x="607" y="82" type="line"/>
      <point x="607" y="617" type="line"/>
      <point x="690" y="617" type="line"/>
      <point x="690" y="699" type="line"/>
      <point x="432" y="699" type="line"/>
      <point x="432" y="617" type="line"/>
      <point x="515" y="617" type="line"/>
    </contour>
    <contour>
      <point x="201" y="617" type="line"/>
      <point x="277" y="617" type="line"/>
      <point x="277" y="699" type="line"/>
      <point x="30" y="699" type="line"/>
      <point x="30" y="617" type="line"/>
      <point x="109" y="617" type="line"/>
      <point x="109" y="82" type="line"/>
      <point x="31" y="82" type="line"/>
      <point x="31" y="0" type="line"/>
      <point x="277" y="0" type="line"/>
      <point x="277" y="82" type="line"/>
      <point x="201" y="82" type="line"/>
    </contour>
  </outline>
</glyph>
<glyph name="I" format="1">
  <advance width="305"/>
  <unicode hex="0049"/>
  <outline>
    <contour>
      <point x="30" y="617" type="line"/>
      <point x="107" y="617" type="line"/>
      <point x="107" y="82" type="line"/>
      <point x="30" y="82" type="line"/>
      <point x="30" y="0" type="line"/>
      <point x="275" y="0" type="line"/>
      <point x="275" y="82" type="line"/>
      <point x="199" y="82" type="line"/>
      <point x="199" y="617" type="line"/>
      <point x="275" y="617" type="line"/>
      <point x="275" y="699" type="line"/>
      <point x="30" y="699" type="line"/>
    </contour>
  </outline>
</glyph>
<glyph name="J" format="1">
  <advance width="340"/>
  <unicode hex="004A"/>
  <outline>
    <contour>
      <point x="18" y="-157" type="line"/>
      <point x="18" y="-157"/>
      <point x="35" y="-164"/>
      <point x="70" y="-164" type="curve" smooth="yes"/>
      <point x="143" y="-164"/>
      <point x="246" y="-114"/>
      <point x="246" y="13" type="curve" smooth="yes"/>
      <point x="246" y="617" type="line"/>
      <point x="338" y="617" type="line"/>
      <point x="338" y="699" type="line"/>
      <point x="64" y="699" type="line"/>
      <point x="64" y="617" type="line"/>
      <point x="154" y="617" type="line"/>
      <point x="154" y="30" type="line"/>
      <point x="154" y="-50"/>
      <point x="112" y="-78"/>
      <point x="58" y="-78" type="curve" smooth="yes"/>
      <point x="35" y="-78"/>
      <point x="17" y="-72"/>
      <point x="17" y="-72" type="curve"/>
    </contour>
  </outline>
</glyph>
<glyph name="K" format="1">
  <advance width="749"/>
  <unicode hex="004B"/>
  <outline>
    <contour>
      <point x="207" y="617" type="line"/>
      <point x="294" y="617" type="line"/>
      <point x="294" y="699" type="line"/>
      <point x="30" y="699" type="line"/>
      <point x="30" y="617" type="line"/>
      <point x="115" y="617" type="line"/>
      <point x="115" y="82" type="line"/>
      <point x="30" y="82" type="line"/>
      <point x="30" y="0" type="line"/>
      <point x="294" y="0" type="line"/>
      <point x="294" y="82" type="line"/>
      <point x="207" y="82" type="line"/>
    </contour>
    <contour>
      <point x="179" y="230" type="line"/>
      <point x="584" y="628" type="line"/>
      <point x="536" y="679" type="line"/>
      <point x="131" y="281" type="line"/>
    </contour>
    <contour>
      <point x="435" y="82" type="line"/>
      <point x="435" y="0" type="line"/>
      <point x="720" y="0" type="line"/>
      <point x="720" y="82" type="line"/>
    </contour>
    <contour>
      <point x="676" y="617" type="line"/>
      <point x="676" y="699" type="line"/>
      <point x="405" y="699" type="line"/>
      <point x="405" y="617" type="line"/>
    </contour>
    <contour>
      <point x="300" y="393" type="line"/>
      <point x="571" y="16" type="line"/>
      <point x="646" y="72" type="line"/>
      <point x="364" y="464" type="line"/>
    </contour>
  </outline>
</glyph>
<glyph name="L" format="1">
  <advance width="574"/>
  <unicode hex="004C"/>
  <outline>
    <contour>
      <point x="30" y="617" type="line"/>
      <point x="109" y="617" type="line"/>
      <point x="109" y="82" type="line"/>
      <point x="30" y="82" type="line"/>
      <point x="30" y="0" type="line"/>
      <point x="529" y="0" type="line"/>
      <point x="529" y="205" type="line"/>
      <point x="443" y="205" type="line"/>
      <point x="443" y="82" type="line"/>
      <point x="201" y="82" type="line"/>
      <point x="201" y="617" type="line"/>
      <point x="296" y="617" type="line"/>
      <point x="296" y="699" type="line"/>
      <point x="30" y="699" type="line"/>
    </contour>
  </outline>
</glyph>
<glyph name="M" format="1">
  <advance width="934"/>
  <unicode hex="004D"/>
  <outline>
    <contour>
      <point x="719" y="617" type="line"/>
      <point x="719" y="464" type="line"/>
      <point x="720" y="82" type="line"/>
      <point x="628" y="82" type="line"/>
      <point x="628" y="0" type="line"/>
      <point x="904" y="0" type="line"/>
      <point x="904" y="82" type="line"/>
      <point x="812" y="82" type="line"/>
      <point x="812" y="617" type="line"/>
      <point x="904" y="617" type="line"/>
      <point x="904" y="699" type="line"/>
      <point x="650" y="699" type="line"/>
      <point x="462" y="99" type="line"/>
      <point x="471" y="99" type="line"/>
      <point x="284" y="699" type="line"/>
      <point x="30" y="699" type="line"/>
      <point x="30" y="617" type="line"/>
      <point x="122" y="617" type="line"/>
      <point x="122" y="82" type="line"/>
      <point x="30" y="82" type="line"/>
      <point x="30" y="0" type="line"/>
      <point x="306" y="0" type="line"/>
      <point x="306" y="82" type="line"/>
      <point x="214" y="82" type="line"/>
      <point x="214" y="617" type="line"/>
      <point x="417" y="0" type="line"/>
      <point x="516" y="0" type="line"/>
    </contour>
  </outline>
</glyph>
<glyph name="N" format="1">
  <advance width="761"/>
  <unicode hex="004E"/>
  <outline>
    <contour>
      <point x="731" y="699" type="line"/>
      <point x="466" y="699" type="line"/>
      <point x="466" y="617" type="line"/>
      <point x="555" y="617" type="line"/>
      <point x="556" y="19" type="line"/>
      <point x="600" y="23" type="line"/>
      <point x="268" y="699" type="line"/>
      <point x="31" y="699" type="line"/>
      <point x="31" y="617" type="line"/>
      <point x="119" y="617" type="line"/>
      <point x="119" y="82" type="line"/>
      <point x="30" y="82" type="line"/>
      <point x="30" y="0" type="line"/>
      <point x="313" y="0" type="line"/>
      <point x="313" y="82" type="line"/>
      <point x="205" y="82" type="line"/>
      <point x="205" y="683" type="line"/>
      <point x="175" y="679" type="line"/>
      <point x="508" y="0" type="line"/>
      <point x="641" y="0" type="line"/>
      <point x="641" y="617" type="line"/>
      <point x="731" y="617" type="line"/>
    </contour>
  </outline>
</glyph>
<glyph name="O" format="1">
  <advance width="711"/>
  <unicode hex="004F"/>
  <outline>
    <contour>
      <point x="671" y="579"/>
      <point x="541" y="716"/>
      <point x="355" y="716" type="curve" smooth="yes"/>
      <point x="174" y="716"/>
      <point x="40" y="579"/>
      <point x="40" y="350" type="curve"/>
      <point x="40" y="111"/>
      <point x="173" y="-17"/>
      <point x="355" y="-17" type="curve" smooth="yes"/>
      <point x="544" y="-17"/>
      <point x="671" y="111"/>
      <point x="671" y="350" type="curve" smooth="yes"/>
    </contour>
    <contour>
      <point x="578" y="216"/>
      <point x="510" y="66"/>
      <point x="355" y="70" type="curve" smooth="yes"/>
      <point x="203" y="74"/>
      <point x="133" y="221"/>
      <point x="133" y="350" type="curve"/>
      <point x="133" y="488"/>
      <point x="204" y="631"/>
      <point x="355" y="631" type="curve" smooth="yes"/>
      <point x="507" y="631"/>
      <point x="578" y="488"/>
      <point x="578" y="350" type="curve" smooth="yes"/>
    </contour>
  </outline>
</glyph>
<glyph name="P" format="1">
  <advance width="573"/>
  <unicode hex="0050"/>
  <outline>
    <contour>
      <point x="308" y="617" type="line" smooth="yes"/>
      <point x="398" y="617"/>
      <point x="438" y="560"/>
      <point x="438" y="481" type="curve" smooth="yes"/>
      <point x="438" y="411"/>
      <point x="388" y="355"/>
      <point x="315" y="355" type="curve" smooth="yes"/>
      <point x="201" y="355" type="line"/>
      <point x="201" y="617" type="line"/>
    </contour>
    <contour>
      <point x="445" y="273"/>
      <point x="533" y="378"/>
      <point x="533" y="481" type="curve" smooth="yes"/>
      <point x="533" y="614"/>
      <point x="439" y="699"/>
      <point x="328" y="699" type="curve" smooth="yes"/>
      <point x="30" y="699" type="line"/>
      <point x="30" y="617" type="line"/>
      <point x="109" y="617" type="line"/>
      <point x="109" y="82" type="line"/>
      <point x="30" y="82" type="line"/>
      <point x="30" y="0" type="line"/>
      <point x="280" y="0" type="line"/>
      <point x="280" y="82" type="line"/>
      <point x="201" y="82" type="line"/>
      <point x="201" y="273" type="line"/>
      <point x="338" y="273" type="line" smooth="yes"/>
    </contour>
  </outline>
</glyph>
<glyph name="Q" format="1">
  <advance width="711"/>
  <unicode hex="0051"/>
  <outline>
    <contour>
      <point x="667" y="-29"/>
      <point x="609" y="-29"/>
      <point x="584" y="-29" type="curve" smooth="yes"/>
      <point x="584" y="-29"/>
      <point x="545" y="72"/>
      <point x="524" y="125" type="curve" smooth="yes"/>
      <point x="486" y="223"/>
      <point x="447" y="304"/>
      <point x="338" y="304" type="curve" smooth="yes"/>
      <point x="241" y="304"/>
      <point x="179" y="225"/>
      <point x="213" y="133" type="curve" smooth="yes"/>
      <point x="227" y="96"/>
      <point x="250" y="79"/>
      <point x="305" y="77" type="curve"/>
      <point x="266" y="88"/>
      <point x="254" y="117"/>
      <point x="254" y="150" type="curve" smooth="yes"/>
      <point x="254" y="187"/>
      <point x="282" y="218"/>
      <point x="333" y="218" type="curve" smooth="yes"/>
      <point x="407" y="218"/>
      <point x="430" y="123"/>
      <point x="454" y="61" type="curve"/>
      <point x="475" y="8"/>
      <point x="522" y="-109"/>
      <point x="522" y="-109" type="curve" smooth="yes"/>
      <point x="552" y="-109"/>
      <point x="667" y="-109"/>
      <point x="667" y="-109" type="curve"/>
      <point x="667" y="-29" type="line"/>
    </contour>
    <component base="O"/>
  </outline>
</glyph>
<glyph name="R" format="1">
  <advance width="652"/>
  <unicode hex="0052"/>
  <outline>
    <contour>
      <point x="280" y="0" type="line"/>
      <point x="280" y="82" type="line"/>
      <point x="201" y="82" type="line"/>
      <point x="201" y="298" type="line"/>
      <point x="283" y="298" type="line" smooth="yes"/>
      <point x="382" y="298"/>
      <point x="413" y="278"/>
      <point x="429" y="188" type="curve" smooth="yes"/>
      <point x="462" y="0" type="line"/>
      <point x="622" y="0" type="line"/>
      <point x="622" y="82" type="line"/>
      <point x="543" y="82" type="line"/>
      <point x="515" y="245" type="line" smooth="yes"/>
      <point x="508" y="284"/>
      <point x="484" y="326"/>
      <point x="415" y="342" type="curve"/>
      <point x="473" y="360"/>
      <point x="532" y="411"/>
      <point x="533" y="502" type="curve" smooth="yes"/>
      <point x="534" y="595"/>
      <point x="487" y="699"/>
      <point x="322" y="699" type="curve" smooth="yes"/>
      <point x="30" y="699" type="line"/>
      <point x="30" y="617" type="line"/>
      <point x="109" y="617" type="line"/>
      <point x="109" y="82" type="line"/>
      <point x="30" y="82" type="line"/>
      <point x="30" y="0" type="line"/>
    </contour>
    <contour>
      <point x="201" y="617" type="line"/>
      <point x="308" y="617" type="line" smooth="yes"/>
      <point x="398" y="617"/>
      <point x="438" y="583"/>
      <point x="438" y="504" type="curve" smooth="yes"/>
      <point x="438" y="434"/>
      <point x="403" y="380"/>
      <point x="319" y="380" type="curve" smooth="yes"/>
      <point x="201" y="380" type="line"/>
    </contour>
  </outline>
</glyph>
<glyph name="S" format="1">
  <advance width="603"/>
  <unicode hex="0053"/>
  <outline>
    <contour>
      <point x="156" y="73"/>
      <point x="130" y="215"/>
      <point x="127" y="247" type="curve"/>
      <point x="41" y="247" type="line"/>
      <point x="40" y="0" type="line"/>
      <point x="127" y="0" type="line"/>
      <point x="127" y="107" type="line"/>
      <point x="144" y="48"/>
      <point x="186" y="-17"/>
      <point x="319" y="-17" type="curve"/>
      <point x="422" y="-17"/>
      <point x="563" y="31"/>
      <point x="563" y="186" type="curve" smooth="yes"/>
      <point x="563" y="484"/>
      <point x="140" y="337"/>
      <point x="137" y="510" type="curve" smooth="yes"/>
      <point x="136" y="581"/>
      <point x="191" y="630"/>
      <point x="274" y="630" type="curve" smooth="yes"/>
      <point x="419" y="630"/>
      <point x="438" y="503"/>
      <point x="443" y="455" type="curve"/>
      <point x="529" y="455" type="line"/>
      <point x="529" y="699" type="line"/>
      <point x="443" y="699" type="line"/>
      <point x="443" y="594" type="line"/>
      <point x="438" y="610"/>
      <point x="387" y="717"/>
      <point x="252" y="717" type="curve" smooth="yes"/>
      <point x="142" y="717"/>
      <point x="41" y="643"/>
      <point x="41" y="510" type="curve" smooth="yes"/>
      <point x="41" y="227"/>
      <point x="467" y="384"/>
      <point x="467" y="186" type="curve" smooth="yes"/>
      <point x="467" y="99"/>
      <point x="376" y="73"/>
      <point x="319" y="74" type="curve"/>
    </contour>
  </outline>
</glyph>
<glyph name="T" format="1">
  <advance width="630"/>
  <unicode hex="0054"/>
  <outline>
    <contour>
      <point x="30" y="699" type="line"/>
      <point x="30" y="540" type="line"/>
      <point x="112" y="540" type="line"/>
      <point x="112" y="617" type="line"/>
      <point x="264" y="617" type="line"/>
      <point x="264" y="82" type="line"/>
      <point x="152" y="82" type="line"/>
      <point x="152" y="0" type="line"/>
      <point x="468" y="0" type="line"/>
      <point x="468" y="82" type="line"/>
      <point x="356" y="82" type="line"/>
      <point x="356" y="617" type="line"/>
      <point x="508" y="617" type="line"/>
      <point x="508" y="540" type="line"/>
      <point x="590" y="540" type="line"/>
      <point x="590" y="699" type="line"/>
    </contour>
  </outline>
</glyph>
<glyph name="U" format="1">
  <advance width="717"/>
  <unicode hex="0055"/>
  <outline>
    <contour>
      <point x="109" y="617" type="line"/>
      <point x="109" y="248" type="line" smooth="yes"/>
      <point x="109" y="104"/>
      <point x="201" y="-9"/>
      <point x="355" y="-9" type="curve" smooth="yes"/>
      <point x="509" y="-9"/>
      <point x="601" y="104"/>
      <point x="601" y="248" type="curve" smooth="yes"/>
      <point x="601" y="617" type="line"/>
      <point x="684" y="617" type="line"/>
      <point x="684" y="699" type="line"/>
      <point x="426" y="699" type="line"/>
      <point x="426" y="617" type="line"/>
      <point x="509" y="617" type="line"/>
      <point x="509" y="251" type="line" smooth="yes"/>
      <point x="509" y="167"/>
      <point x="463" y="83"/>
      <point x="355" y="83" type="curve" smooth="yes"/>
      <point x="247" y="83"/>
      <point x="201" y="167"/>
      <point x="201" y="251" type="curve" smooth="yes"/>
      <point x="201" y="617" type="line"/>
      <point x="277" y="617" type="line"/>
      <point x="277" y="699" type="line"/>
      <point x="30" y="699" type="line"/>
      <point x="30" y="617" type="line"/>
    </contour>
  </outline>
</glyph>
<glyph name="V" format="1">
  <advance width="740"/>
  <unicode hex="0056"/>
  <outline>
    <contour>
      <point x="340" y="26" type="line"/>
      <point x="399" y="26" type="line"/>
      <point x="191" y="617" type="line"/>
      <point x="279" y="617" type="line"/>
      <point x="279" y="699" type="line"/>
      <point x="20" y="699" type="line"/>
      <point x="20" y="617" type="line"/>
      <point x="99" y="617" type="line"/>
      <point x="313" y="0" type="line"/>
      <point x="421" y="0" type="line"/>
      <point x="641" y="617" type="line"/>
      <point x="720" y="617" type="line"/>
      <point x="720" y="699" type="line"/>
      <point x="454" y="699" type="line"/>
      <point x="454" y="617" type="line"/>
      <point x="546" y="617" type="line"/>
    </contour>
    <contour>
      <point x="87" y="690" type="move" name="ogonek"/>
    </contour>
    <contour>
      <point x="396" y="700" type="move" name="bottom"/>
    </contour>
    <contour>
      <point x="394" y="1" type="move" name="top"/>
    </contour>
  </outline>
</glyph>
<glyph name="W" format="1">
  <advance width="1084"/>
  <unicode hex="0057"/>
  <outline>
    <contour>
      <point x="320" y="26" type="line"/>
      <point x="379" y="26" type="line"/>
      <point x="191" y="617" type="line"/>
      <point x="273" y="617" type="line"/>
      <point x="273" y="699" type="line"/>
      <point x="20" y="699" type="line"/>
      <point x="20" y="617" type="line"/>
      <point x="99" y="617" type="line"/>
      <point x="293" y="0" type="line"/>
      <point x="401" y="0" type="line"/>
      <point x="582" y="533" type="line"/>
      <point x="503" y="577" type="line"/>
    </contour>
    <contour>
      <point x="714" y="26" type="line"/>
      <point x="773" y="26" type="line"/>
      <point x="575" y="617" type="line"/>
      <point x="668" y="617" type="line"/>
      <point x="668" y="699" type="line"/>
      <point x="404" y="699" type="line"/>
      <point x="404" y="617" type="line"/>
      <point x="483" y="617" type="line"/>
      <point x="687" y="0" type="line"/>
      <point x="795" y="0" type="line"/>
      <point x="985" y="617" type="line"/>
      <point x="1064" y="617" type="line"/>
      <point x="1064" y="699" type="line"/>
      <point x="798" y="699" type="line"/>
      <point x="798" y="617" type="line"/>
      <point x="890" y="617" type="line"/>
    </contour>
  </outline>
</glyph>
<glyph name="X" format="1">
  <advance width="835"/>
  <unicode hex="0058"/>
  <outline>
    <contour>
      <point x="371" y="395" type="line"/>
      <point x="159" y="82" type="line"/>
      <point x="82" y="82" type="line"/>
      <point x="82" y="0" type="line"/>
      <point x="345" y="0" type="line"/>
      <point x="345" y="82" type="line"/>
      <point x="269" y="82" type="line"/>
      <point x="445" y="342" type="line"/>
    </contour>
    <contour>
      <point x="405" y="341" type="line"/>
      <point x="590" y="82" type="line"/>
      <point x="514" y="82" type="line"/>
      <point x="514" y="0" type="line"/>
      <point x="777" y="0" type="line"/>
      <point x="777" y="82" type="line"/>
      <point x="700" y="82" type="line"/>
      <point x="479" y="394" type="line"/>
    </contour>
    <contour>
      <point x="469" y="369" type="line" smooth="yes"/>
      <point x="299" y="617" type="line"/>
      <point x="376" y="617" type="line"/>
      <point x="376" y="699" type="line"/>
      <point x="113" y="699" type="line"/>
      <point x="113" y="617" type="line"/>
      <point x="189" y="617" type="line"/>
      <point x="395" y="316" type="line" smooth="yes"/>
    </contour>
    <contour>
      <point x="480" y="316" type="line"/>
      <point x="686" y="617" type="line"/>
      <point x="762" y="617" type="line"/>
      <point x="762" y="699" type="line"/>
      <point x="499" y="699" type="line"/>
      <point x="499" y="617" type="line"/>
      <point x="576" y="617" type="line"/>
      <point x="406" y="369" type="line"/>
    </contour>
  </outline>
</glyph>
<glyph name="Y" format="1">
  <advance width="683"/>
  <unicode hex="0059"/>
  <outline>
    <contour>
      <point x="297" y="230" type="line"/>
      <point x="297" y="82" type="line"/>
      <point x="220" y="82" type="line"/>
      <point x="220" y="0" type="line"/>
      <point x="465" y="0" type="line"/>
      <point x="465" y="82" type="line"/>
      <point x="389" y="82" type="line"/>
      <point x="389" y="236" type="line"/>
    </contour>
    <contour>
      <point x="389" y="225" type="line"/>
      <point x="577" y="617" type="line"/>
      <point x="653" y="617" type="line"/>
      <point x="653" y="699" type="line"/>
      <point x="399" y="699" type="line"/>
      <point x="399" y="617" type="line"/>
      <point x="476" y="617" type="line"/>
      <point x="303" y="234" type="line"/>
    </contour>
    <contour>
      <point x="206" y="617" type="line"/>
      <point x="283" y="617" type="line"/>
      <point x="283" y="699" type="line"/>
      <point x="30" y="699" type="line"/>
      <point x="30" y="617" type="line"/>
      <point x="106" y="617" type="line"/>
      <point x="297" y="224" type="line"/>
      <point x="383" y="234" type="line"/>
    </contour>
  </outline>
</glyph>
<glyph name="Z" format="1">
  <advance width="620"/>
  <unicode hex="005A"/>
  <outline>
    <contour>
      <point x="153" y="512" type="line"/>
      <point x="153" y="617" type="line"/>
      <point x="459" y="617" type="line"/>
      <point x="54" y="82" type="line"/>
      <point x="54" y="0" type="line"/>
      <point x="580" y="0" type="line"/>
      <point x="580" y="190" type="line"/>
      <point x="493" y="190" type="line"/>
      <point x="492" y="82" type="line"/>
      <point x="167" y="82" type="line"/>
      <point x="571" y="617" type="line"/>
      <point x="571" y="699" type="line"/>
      <point x="65" y="699" type="line"/>
      <point x="65" y="512" type="line"/>
    </contour>
  </outline>
</glyph>
<glyph name="bracketleft" format="1">
  <advance width="316"/>
  <unicode hex="005B"/>
  <outline>
    <contour>
      <point x="286" y="-140" type="line"/>
      <point x="158" y="-140" type="line"/>
      <point x="158" y="644" type="line"/>
      <point x="286" y="644" type="line"/>
      <point x="286" y="718" type="line"/>
      <point x="71" y="718" type="line"/>
      <point x="71" y="717" type="line"/>
      <point x="70" y="717" type="line"/>
      <point x="70" y="-178" type="line"/>
      <point x="71" y="-178" type="line"/>
      <point x="71" y="-214" type="line"/>
      <point x="286" y="-214" type="line"/>
    </contour>
  </outline>
</glyph>
<glyph name="backslash" format="1">
  <advance width="425"/>
  <unicode hex="005C"/>
  <outline>
    <contour>
      <point x="106" y="765" type="line"/>
      <point x="35" y="736" type="line"/>
      <point x="317" y="-72" type="line"/>
      <point x="390" y="-43" type="line"/>
    </contour>
  </outline>
</glyph>
<glyph name="bracketright" format="1">
  <advance width="316"/>
  <unicode hex="005D"/>
  <outline>
    <contour>
      <point x="245" y="-214" type="line"/>
      <point x="245" y="-178" type="line"/>
      <point x="246" y="-178" type="line"/>
      <point x="246" y="717" type="line"/>
      <point x="245" y="717" type="line"/>
      <point x="245" y="718" type="line"/>
      <point x="30" y="718" type="line"/>
      <point x="30" y="644" type="line"/>
      <point x="158" y="644" type="line"/>
      <point x="158" y="-140" type="line"/>
      <point x="30" y="-140" type="line"/>
      <point x="30" y="-214" type="line"/>
    </contour>
  </outline>
</glyph>
<glyph name="asciicircum" format="1">
  <advance width="405"/>
  <unicode hex="005E"/>
  <outline>
    <contour>
      <point x="91" y="450" type="line"/>
      <point x="203" y="668" type="line"/>
      <point x="314" y="450" type="line"/>
      <point x="385" y="482" type="line"/>
      <point x="251" y="750" type="line"/>
      <point x="156" y="750" type="line"/>
      <point x="20" y="482" type="line"/>
    </contour>
  </outline>
</glyph>
<glyph name="underscore" format="1">
  <advance width="548"/>
  <unicode hex="005F"/>
  <outline>
    <contour>
      <point x="50" y="-79" type="line"/>
      <point x="498" y="-79" type="line"/>
      <point x="498" y="-17" type="line"/>
      <point x="50" y="-17" type="line"/>
    </contour>
  </outline>
</glyph>
<glyph name="grave" format="1">
  <advance width="500"/>
  <unicode hex="0060"/>
  <outline>
    <contour>
      <point x="178" y="755" type="line" smooth="yes"/>
      <point x="345" y="626" type="line" smooth="yes"/>
      <point x="303" y="566" type="line" smooth="yes"/>
      <point x="114" y="673" type="line" smooth="yes"/>
    </contour>
  </outline>
</glyph>
<glyph name="a" format="1">
  <advance width="544"/>
  <unicode hex="0061"/>
  <outline>
    <contour>
      <point x="358" y="67" type="line"/>
      <point x="386" y="0" type="line"/>
      <point x="527" y="0" type="line"/>
      <point x="527" y="74" type="line"/>
      <point x="446" y="74" type="line"/>
      <point x="446" y="323" type="line" smooth="yes"/>
      <point x="446" y="445"/>
      <point x="368" y="515"/>
      <point x="251" y="515" type="curve" smooth="yes"/>
      <point x="142" y="515"/>
      <point x="80" y="477"/>
      <point x="53" y="458" type="curve"/>
      <point x="91" y="393" type="line"/>
      <point x="100" y="400"/>
      <point x="157" y="435"/>
      <point x="228" y="435" type="curve" smooth="yes"/>
      <point x="311" y="435"/>
      <point x="358" y="393"/>
      <point x="358" y="305" type="curve"/>
    </contour>
    <contour>
      <point x="365" y="154" type="line"/>
      <point x="357" y="127"/>
      <point x="291" y="68"/>
      <point x="231" y="68" type="curve" smooth="yes"/>
      <point x="161" y="68"/>
      <point x="115" y="92"/>
      <point x="115" y="157" type="curve" smooth="yes"/>
      <point x="115" y="219"/>
      <point x="156" y="255"/>
      <point x="229" y="255" type="curve" smooth="yes"/>
      <point x="307" y="255"/>
      <point x="350" y="225"/>
      <point x="370" y="199" type="curve"/>
      <point x="370" y="280" type="line"/>
      <point x="335" y="316"/>
      <point x="290" y="337"/>
      <point x="228" y="337" type="curve" smooth="yes"/>
      <point x="115" y="337"/>
      <point x="20" y="261"/>
      <point x="20" y="148" type="curve" smooth="yes"/>
      <point x="20" y="47"/>
      <point x="109" y="-19"/>
      <point x="212" y="-19" type="curve" smooth="yes"/>
      <point x="314" y="-19"/>
      <point x="363" y="77"/>
      <point x="365" y="77" type="curve"/>
    </contour>
  </outline>
</glyph>
<glyph name="c" format="1">
  <advance width="500"/>
  <unicode hex="0063"/>
  <outline>
    <contour>
      <point x="384" y="415" type="line"/>
      <point x="374" y="459"/>
      <point x="322" y="519"/>
      <point x="236" y="519" type="curve" smooth="yes"/>
      <point x="100" y="519"/>
      <point x="20" y="398"/>
      <point x="20" y="250" type="curve" smooth="yes"/>
      <point x="20" y="100"/>
      <point x="109" y="-15"/>
      <point x="273" y="-15" type="curve" smooth="yes"/>
      <point x="368" y="-15"/>
      <point x="431" y="25"/>
      <point x="470" y="74" type="curve"/>
      <point x="408" y="133" type="line" smooth="yes"/>
      <point x="378" y="91"/>
      <point x="340" y="76"/>
      <point x="272" y="76" type="curve" smooth="yes"/>
      <point x="158" y="76"/>
      <point x="112" y="162"/>
      <point x="112" y="250" type="curve" smooth="yes"/>
      <point x="112" y="332"/>
      <point x="140" y="437"/>
      <point x="255" y="437" type="curve" smooth="yes"/>
      <point x="324" y="437"/>
      <point x="382" y="388"/>
      <point x="382" y="301" type="curve"/>
    </contour>
    <contour>
      <point x="382" y="301" type="line"/>
      <point x="464" y="301" type="line"/>
      <point x="464" y="500" type="line"/>
      <point x="382" y="500" type="line"/>
    </contour>
  </outline>
</glyph>
<glyph name="d" format="1">
  <advance width="619"/>
  <unicode hex="0064"/>
  <outline>
    <contour>
      <point x="410" y="74" type="line"/>
      <point x="434" y="0" type="line"/>
      <point x="586" y="0" type="line"/>
      <point x="586" y="74" type="line"/>
      <point x="498" y="74" type="line"/>
      <point x="498" y="750" type="line"/>
      <point x="322" y="750" type="line"/>
      <point x="322" y="676" type="line"/>
      <point x="410" y="676" type="line"/>
    </contour>
    <component base="_part.pdbqbowl" xOffset="608" yOffset="4" xScale="-1"/>
  </outline>
</glyph>
<glyph name="e" format="1">
  <advance width="504"/>
  <unicode hex="0065"/>
  <outline>
    <contour>
      <point x="483" y="226" type="line"/>
      <point x="484" y="234"/>
      <point x="484" y="260"/>
      <point x="484" y="269" type="curve" smooth="yes"/>
      <point x="484" y="305"/>
      <point x="475" y="357"/>
      <point x="453" y="401" type="curve" smooth="yes"/>
      <point x="417" y="471"/>
      <point x="351" y="519"/>
      <point x="255" y="519" type="curve" smooth="yes"/>
      <point x="100" y="519"/>
      <point x="20" y="398"/>
      <point x="20" y="250" type="curve" smooth="yes"/>
      <point x="20" y="100"/>
      <point x="105" y="-15"/>
      <point x="269" y="-15" type="curve" smooth="yes"/>
      <point x="364" y="-15"/>
      <point x="431" y="25"/>
      <point x="470" y="74" type="curve"/>
      <point x="410" y="131" type="line"/>
      <point x="380" y="89"/>
      <point x="339" y="67"/>
      <point x="271" y="67" type="curve" smooth="yes"/>
      <point x="157" y="67"/>
      <point x="107" y="145"/>
      <point x="107" y="250" type="curve" smooth="yes"/>
      <point x="107" y="332"/>
      <point x="140" y="437"/>
      <point x="255" y="437" type="curve" smooth="yes"/>
      <point x="361" y="437"/>
      <point x="397" y="325"/>
      <point x="397" y="288" type="curve" smooth="yes"/>
      <point x="397" y="280"/>
      <point x="397" y="234"/>
      <point x="396" y="226" type="curve"/>
    </contour>
    <contour>
      <point x="66" y="226" type="line"/>
      <point x="459" y="226" type="line"/>
      <point x="459" y="303" type="line"/>
      <point x="66" y="303" type="line"/>
    </contour>
  </outline>
</glyph>
<glyph name="f" format="1">
  <advance width="398"/>
  <unicode hex="0066"/>
  <outline>
    <contour>
      <point x="20" y="478" type="line"/>
      <point x="20" y="404" type="line"/>
      <point x="108" y="404" type="line"/>
      <point x="108" y="74" type="line"/>
      <point x="38" y="74" type="line"/>
      <point x="38" y="0" type="line"/>
      <point x="278" y="0" type="line"/>
      <point x="278" y="74" type="line"/>
      <point x="196" y="74" type="line"/>
      <point x="196" y="404" type="line"/>
      <point x="317" y="404" type="line"/>
      <point x="317" y="478" type="line"/>
    </contour>
    <contour>
      <point x="108" y="446" type="line"/>
      <point x="195" y="451" type="line"/>
      <point x="195" y="583" type="line"/>
      <point x="195" y="670"/>
      <point x="247" y="685"/>
      <point x="278" y="685" type="curve" smooth="yes"/>
      <point x="327" y="685"/>
      <point x="348" y="667"/>
      <point x="348" y="667" type="curve"/>
      <point x="368" y="731" type="line"/>
      <point x="358" y="741"/>
      <point x="324" y="764"/>
      <point x="265" y="764" type="curve"/>
      <point x="176" y="764"/>
      <point x="108" y="695"/>
      <point x="108" y="585" type="curve"/>
    </contour>
  </outline>
</glyph>
<glyph name="g" format="1">
  <advance width="554"/>
  <unicode hex="0067"/>
  <outline>
    <contour>
      <point x="513" y="426" type="line"/>
      <point x="513" y="500" type="line"/>
      <point x="278" y="500" type="line"/>
      <point x="399" y="426" type="line"/>
    </contour>
    <contour>
      <point x="396" y="152"/>
      <point x="469" y="238"/>
      <point x="469" y="333" type="curve" smooth="yes"/>
      <point x="469" y="431"/>
      <point x="396" y="518"/>
      <point x="269" y="518" type="curve" smooth="yes"/>
      <point x="141" y="518"/>
      <point x="71" y="431"/>
      <point x="71" y="333" type="curve" smooth="yes"/>
      <point x="71" y="238"/>
      <point x="141" y="152"/>
      <point x="269" y="152" type="curve" smooth="yes"/>
    </contour>
    <contour>
      <point x="187" y="231"/>
      <point x="162" y="281"/>
      <point x="162" y="333" type="curve" smooth="yes"/>
      <point x="162" y="383"/>
      <point x="187" y="446"/>
      <point x="269" y="446" type="curve" smooth="yes"/>
      <point x="350" y="446"/>
      <point x="377" y="383"/>
      <point x="377" y="333" type="curve" smooth="yes"/>
      <point x="377" y="281"/>
      <point x="350" y="231"/>
      <point x="269" y="231" type="curve" smooth="yes"/>
    </contour>
    <contour>
      <point x="181" y="218" type="line"/>
      <point x="114" y="218"/>
      <point x="55" y="165"/>
      <point x="55" y="109" type="curve" smooth="yes"/>
      <point x="55" y="34"/>
      <point x="93" y="-2"/>
      <point x="224" y="-2" type="curve" smooth="yes"/>
      <point x="279" y="-2"/>
      <point x="301" y="-2"/>
      <point x="331" y="-2" type="curve" smooth="yes"/>
      <point x="408" y="-2"/>
      <point x="429" y="-41"/>
      <point x="429" y="-71" type="curve" smooth="yes"/>
      <point x="429" y="-123"/>
      <point x="389" y="-148"/>
      <point x="267" y="-148" type="curve" smooth="yes"/>
      <point x="161" y="-148"/>
      <point x="108" y="-128"/>
      <point x="108" y="-74" type="curve" smooth="yes"/>
      <point x="108" y="-23"/>
      <point x="149" y="-1"/>
      <point x="224" y="-1" type="curve"/>
      <point x="184" y="19" type="line"/>
      <point x="152" y="19"/>
      <point x="20" y="25"/>
      <point x="20" y="-85" type="curve" smooth="yes"/>
      <point x="20" y="-199"/>
      <point x="144" y="-230"/>
      <point x="271" y="-230" type="curve"/>
      <point x="424" y="-230"/>
      <point x="518" y="-175"/>
      <point x="518" y="-81" type="curve"/>
      <point x="518" y="-5"/>
      <point x="491" y="73"/>
      <point x="348" y="73" type="curve" smooth="yes"/>
      <point x="315" y="73"/>
      <point x="276" y="73"/>
      <point x="230" y="73" type="curve" smooth="yes"/>
      <point x="192" y="73"/>
      <point x="142" y="88"/>
      <point x="142" y="119" type="curve"/>
      <point x="142" y="154"/>
      <point x="199" y="165"/>
      <point x="229" y="165" type="curve"/>
    </contour>
  </outline>
</glyph>
<glyph name="j" format="1">
  <advance width="294"/>
  <unicode hex="006A"/>
  <outline>
    <contour>
      <point x="119" y="40" type="line" smooth="yes"/>
      <point x="119" y="-59"/>
      <point x="115" y="-159"/>
      <point x="-20" y="-159" type="curve"/>
      <point x="4" y="-230" type="line"/>
      <point x="215" y="-230"/>
      <point x="205" y="-41"/>
      <point x="205" y="74" type="curve" smooth="yes"/>
      <point x="205" y="500" type="line"/>
      <point x="19" y="500" type="line"/>
      <point x="19" y="428" type="line"/>
      <point x="119" y="428" type="line"/>
    </contour>
    <component base="dotaccentcomb" xOffset="1" yOffset="32"/>
  </outline>
</glyph>
<glyph name="k" format="1">
  <advance width="628"/>
  <unicode hex="006B"/>
  <outline>
    <contour>
      <point x="166" y="153" type="line"/>
      <point x="290" y="261" type="line"/>
      <point x="428" y="74" type="line"/>
      <point x="372" y="74" type="line"/>
      <point x="373" y="0" type="line"/>
      <point x="604" y="0" type="line"/>
      <point x="603" y="74" type="line"/>
      <point x="532" y="74" type="line"/>
      <point x="356" y="318" type="line"/>
      <point x="479" y="425" type="line"/>
      <point x="569" y="425" type="line"/>
      <point x="569" y="499" type="line"/>
      <point x="318" y="499" type="line"/>
      <point x="318" y="425" type="line"/>
      <point x="386" y="425" type="line"/>
      <point x="174" y="245" type="line"/>
    </contour>
    <component base="l"/>
  </outline>
</glyph>
<glyph name="l" format="1">
  <advance width="327"/>
  <unicode hex="006C"/>
  <outline>
    <contour>
      <point x="294" y="74" type="line"/>
      <point x="206" y="74" type="line"/>
      <point x="206" y="750" type="line"/>
      <point x="30" y="750" type="line"/>
      <point x="30" y="676" type="line"/>
      <point x="118" y="676" type="line"/>
      <point x="118" y="74" type="line"/>
      <point x="30" y="74" type="line"/>
      <point x="30" y="0" type="line"/>
      <point x="294" y="0" type="line"/>
    </contour>
  </outline>
</glyph>
<glyph name="m" format="1">
  <advance width="940"/>
  <unicode hex="006D"/>
  <outline>
    <contour>
      <point x="198" y="425" type="line"/>
      <point x="181" y="500" type="line"/>
      <point x="30" y="500" type="line"/>
      <point x="30" y="426" type="line"/>
      <point x="110" y="426" type="line"/>
      <point x="110" y="74" type="line"/>
      <point x="30" y="74" type="line"/>
      <point x="30" y="0" type="line"/>
      <point x="282" y="0" type="line"/>
      <point x="282" y="74" type="line"/>
      <point x="198" y="74" type="line"/>
    </contour>
    <component base="_part.shoulder" xOffset="313"/>
    <component base="_part.shoulder" xOffset="-6"/>
  </outline>
</glyph>
<glyph name="o" format="1">
  <advance width="524"/>
  <unicode hex="006F"/>
  <outline>
    <contour>
      <point x="415" y="-15"/>
      <point x="504" y="109"/>
      <point x="504" y="250" type="curve" smooth="yes"/>
      <point x="504" y="393"/>
      <point x="415" y="519"/>
      <point x="261" y="519" type="curve" smooth="yes"/>
      <point x="106" y="519"/>
      <point x="20" y="393"/>
      <point x="20" y="250" type="curve" smooth="yes"/>
      <point x="20" y="109"/>
      <point x="106" y="-15"/>
      <point x="261" y="-15" type="curve" smooth="yes"/>
    </contour>
    <contour>
      <point x="148" y="74"/>
      <point x="112" y="162"/>
      <point x="112" y="250" type="curve" smooth="yes"/>
      <point x="112" y="332"/>
      <point x="148" y="437"/>
      <point x="261" y="437" type="curve" smooth="yes"/>
      <point x="374" y="437"/>
      <point x="412" y="332"/>
      <point x="412" y="250" type="curve" smooth="yes"/>
      <point x="412" y="162"/>
      <point x="374" y="74"/>
      <point x="261" y="74" type="curve" smooth="yes"/>
    </contour>
  </outline>
</glyph>
<glyph name="p" format="1">
  <advance width="607"/>
  <unicode hex="0070"/>
  <outline>
    <contour>
      <point x="196" y="426" type="line"/>
      <point x="172" y="500" type="line"/>
      <point x="20" y="500" type="line"/>
      <point x="20" y="426" type="line"/>
      <point x="108" y="426" type="line"/>
      <point x="108" y="-207" type="line"/>
      <point x="284" y="-207" type="line"/>
      <point x="284" y="-133" type="line"/>
      <point x="196" y="-133" type="line"/>
    </contour>
    <contour>
      <point x="20" y="-207" type="line"/>
      <point x="108" y="-207" type="line"/>
      <point x="108" y="-133" type="line"/>
      <point x="20" y="-133" type="line"/>
    </contour>
    <component base="_part.pdbqbowl" xOffset="-1"/>
  </outline>
</glyph>
<glyph name="q" format="1">
  <advance width="606"/>
  <unicode hex="0071"/>
  <outline>
    <contour>
      <point x="20" y="107"/>
      <point x="90" y="-19"/>
      <point x="244" y="-19" type="curve" smooth="yes"/>
      <point x="332" y="-19"/>
      <point x="396" y="39"/>
      <point x="410" y="68" type="curve"/>
      <point x="410" y="-133" type="line"/>
      <point x="322" y="-133" type="line"/>
      <point x="322" y="-207" type="line"/>
      <point x="586" y="-207" type="line"/>
      <point x="586" y="-133" type="line"/>
      <point x="498" y="-133" type="line"/>
      <point x="498" y="486" type="line"/>
      <point x="461" y="494"/>
      <point x="410" y="515"/>
      <point x="300" y="515" type="curve" smooth="yes"/>
      <point x="104" y="515"/>
      <point x="20" y="391"/>
      <point x="20" y="250" type="curve" smooth="yes"/>
    </contour>
    <contour>
      <point x="111" y="338"/>
      <point x="145" y="434"/>
      <point x="297" y="434" type="curve" smooth="yes"/>
      <point x="347" y="434"/>
      <point x="384" y="426"/>
      <point x="410" y="419" type="curve"/>
      <point x="410" y="250" type="line" smooth="yes"/>
      <point x="410" y="145"/>
      <point x="356" y="56"/>
      <point x="260" y="56" type="curve" smooth="yes"/>
      <point x="149" y="56"/>
      <point x="111" y="168"/>
      <point x="111" y="250" type="curve" smooth="yes"/>
    </contour>
  </outline>
</glyph>
<glyph name="r" format="1">
  <advance width="456"/>
  <unicode hex="0072"/>
  <outline>
    <contour>
      <point x="305" y="74" type="line"/>
      <point x="199" y="74" type="line"/>
      <point x="199" y="428" type="line"/>
      <point x="181" y="500" type="line"/>
      <point x="30" y="500" type="line"/>
      <point x="30" y="425" type="line"/>
      <point x="111" y="425" type="line"/>
      <point x="111" y="74" type="line"/>
      <point x="30" y="74" type="line"/>
      <point x="30" y="0" type="line"/>
      <point x="305" y="0" type="line"/>
    </contour>
    <contour>
      <point x="417" y="507"/>
      <point x="390" y="517"/>
      <point x="350" y="517" type="curve"/>
      <point x="274" y="517"/>
      <point x="204" y="456"/>
      <point x="179" y="390" type="curve"/>
      <point x="179" y="264" type="line"/>
      <point x="199" y="284" type="line"/>
      <point x="199" y="390"/>
      <point x="290" y="421"/>
      <point x="343" y="421" type="curve" smooth="yes"/>
      <point x="367" y="421"/>
      <point x="387" y="415"/>
      <point x="394" y="411" type="curve"/>
      <point x="426" y="502" type="line"/>
    </contour>
  </outline>
</glyph>
<glyph name="s" format="1">
  <advance width="497"/>
  <unicode hex="0073"/>
  <outline>
    <contour>
      <point x="122" y="0" type="line"/>
      <point x="122" y="71" type="line"/>
      <point x="128" y="44"/>
      <point x="167" y="-15"/>
      <point x="285" y="-15" type="curve" smooth="yes"/>
      <point x="360" y="-15"/>
      <point x="457" y="36"/>
      <point x="457" y="135" type="curve" smooth="yes"/>
      <point x="457" y="233"/>
      <point x="349" y="270"/>
      <point x="292" y="290" type="curve" smooth="yes"/>
      <point x="196" y="324"/>
      <point x="131" y="333"/>
      <point x="131" y="375" type="curve" smooth="yes"/>
      <point x="131" y="412"/>
      <point x="158" y="444"/>
      <point x="222" y="444" type="curve" smooth="yes"/>
      <point x="298" y="444"/>
      <point x="340" y="386"/>
      <point x="349" y="340" type="curve"/>
      <point x="431" y="340" type="line"/>
      <point x="431" y="500" type="line"/>
      <point x="349" y="500" type="line"/>
      <point x="349" y="434" type="line"/>
      <point x="341" y="466"/>
      <point x="282" y="519"/>
      <point x="203" y="519" type="curve" smooth="yes"/>
      <point x="130" y="519"/>
      <point x="43" y="469"/>
      <point x="43" y="375" type="curve" smooth="yes"/>
      <point x="43" y="264"/>
      <point x="148" y="246"/>
      <point x="245" y="211" type="curve" smooth="yes"/>
      <point x="316" y="185"/>
      <point x="360" y="161"/>
      <point x="360" y="126" type="curve" smooth="yes"/>
      <point x="360" y="97"/>
      <point x="330" y="64"/>
      <point x="252" y="64" type="curve" smooth="yes"/>
      <point x="158" y="64"/>
      <point x="131" y="120"/>
      <point x="122" y="160" type="curve"/>
      <point x="40" y="160" type="line"/>
      <point x="40" y="0" type="line"/>
    </contour>
  </outline>
</glyph>
<glyph name="t" format="1">
  <advance width="398"/>
  <unicode hex="0074"/>
  <outline>
    <contour>
      <point x="108" y="426" type="line"/>
      <point x="108" y="160" type="line"/>
      <point x="108" y="16"/>
      <point x="190" y="-13"/>
      <point x="265" y="-13" type="curve" smooth="yes"/>
      <point x="324" y="-13"/>
      <point x="358" y="10"/>
      <point x="368" y="20" type="curve"/>
      <point x="348" y="84" type="line"/>
      <point x="348" y="84"/>
      <point x="327" y="66"/>
      <point x="278" y="66" type="curve" smooth="yes"/>
      <point x="247" y="66"/>
      <point x="196" y="72"/>
      <point x="196" y="172" type="curve" smooth="yes"/>
      <point x="196" y="426" type="line"/>
      <point x="357" y="426" type="line"/>
      <point x="357" y="500" type="line"/>
      <point x="196" y="500" type="line"/>
      <point x="196" y="636" type="line"/>
      <point x="108" y="624" type="line"/>
      <point x="108" y="500" type="line"/>
      <point x="20" y="500" type="line"/>
      <point x="20" y="426" type="line"/>
    </contour>
  </outline>
</glyph>
<glyph name="u" format="1">
  <advance width="632"/>
  <unicode hex="0075"/>
  <outline>
    <contour>
      <point x="528" y="500" type="line"/>
      <point x="352" y="500" type="line"/>
      <point x="352" y="426" type="line"/>
      <point x="436" y="426" type="line"/>
      <point x="436" y="74" type="line"/>
      <point x="459" y="0" type="line"/>
      <point x="599" y="0" type="line"/>
      <point x="599" y="74" type="line"/>
      <point x="528" y="74" type="line"/>
    </contour>
    <component base="_part.shoulder" xOffset="640" yOffset="500" xScale="-1" yScale="-1"/>
  </outline>
</glyph>
<glyph name="v" format="1">
  <advance width="644"/>
  <unicode hex="0076"/>
  <outline>
    <contour>
      <point x="468" y="467" type="line"/>
      <point x="302" y="26" type="line"/>
      <point x="345" y="26" type="line"/>
      <point x="183" y="466" type="line"/>
      <point x="91" y="464" type="line"/>
      <point x="259" y="0" type="line"/>
      <point x="379" y="0" type="line"/>
      <point x="558" y="468" type="line"/>
    </contour>
    <contour>
      <point x="20" y="427" type="line"/>
      <point x="263" y="427" type="line"/>
      <point x="263" y="500" type="line"/>
      <point x="20" y="500" type="line"/>
    </contour>
    <contour>
      <point x="381" y="427" type="line"/>
      <point x="624" y="427" type="line"/>
      <point x="624" y="500" type="line"/>
      <point x="381" y="500" type="line"/>
    </contour>
  </outline>
</glyph>
<glyph name="w" format="1">
  <advance width="869"/>
  <unicode hex="0077"/>
  <outline>
    <contour>
      <point x="471" y="500" type="line"/>
      <point x="394" y="500" type="line"/>
      <point x="281" y="26" type="line"/>
      <point x="313" y="26" type="line"/>
      <point x="181" y="466" type="line"/>
      <point x="91" y="464" type="line"/>
      <point x="229" y="0" type="line"/>
      <point x="338" y="0" type="line"/>
      <point x="471" y="492" type="line"/>
    </contour>
    <contour>
      <point x="20" y="427" type="line"/>
      <point x="263" y="427" type="line"/>
      <point x="263" y="500" type="line"/>
      <point x="20" y="500" type="line"/>
    </contour>
    <contour>
      <point x="395" y="491" type="line"/>
      <point x="531" y="0" type="line"/>
      <point x="640" y="0" type="line"/>
      <point x="778" y="464" type="line"/>
      <point x="689" y="466" type="line"/>
      <point x="557" y="26" type="line"/>
      <point x="588" y="26" type="line"/>
      <point x="471" y="500" type="line"/>
    </contour>
    <contour>
      <point x="606" y="500" type="line"/>
      <point x="606" y="427" type="line"/>
      <point x="849" y="427" type="line"/>
      <point x="849" y="500" type="line"/>
    </contour>
  </outline>
</glyph>
<glyph name="x" format="1">
  <advance width="596"/>
  <unicode hex="0078"/>
  <outline>
    <contour>
      <point x="259" y="0" type="line"/>
      <point x="259" y="74" type="line"/>
      <point x="189" y="74" type="line"/>
      <point x="318" y="263" type="line"/>
      <point x="275" y="263" type="line"/>
      <point x="412" y="74" type="line"/>
      <point x="332" y="74" type="line"/>
      <point x="332" y="0" type="line"/>
      <point x="576" y="0" type="line"/>
      <point x="576" y="74" type="line"/>
      <point x="505" y="74" type="line"/>
      <point x="352" y="289" type="line"/>
      <point x="353" y="215" type="line"/>
      <point x="497" y="426" type="line"/>
      <point x="568" y="426" type="line"/>
      <point x="568" y="500" type="line"/>
      <point x="335" y="500" type="line"/>
      <point x="335" y="426" type="line"/>
      <point x="401" y="426" type="line"/>
      <point x="278" y="249" type="line"/>
      <point x="318" y="249" type="line"/>
      <point x="195" y="426" type="line"/>
      <point x="254" y="426" type="line"/>
      <point x="254" y="500" type="line"/>
      <point x="23" y="500" type="line"/>
      <point x="23" y="426" type="line"/>
      <point x="93" y="426" type="line"/>
      <point x="239" y="213" type="line"/>
      <point x="239" y="287" type="line"/>
      <point x="95" y="74" type="line"/>
      <point x="20" y="74" type="line"/>
      <point x="20" y="0" type="line"/>
    </contour>
  </outline>
</glyph>
<glyph name="y" format="1">
  <advance width="644"/>
  <unicode hex="0079"/>
  <outline>
    <contour>
      <point x="104" y="427" type="line"/>
      <point x="275" y="-41" type="line"/>
      <point x="237" y="-125"/>
      <point x="215" y="-148"/>
      <point x="166" y="-148" type="curve" smooth="yes"/>
      <point x="114" y="-148"/>
      <point x="92" y="-128"/>
      <point x="83" y="-119" type="curve"/>
      <point x="39" y="-181" type="line"/>
      <point x="49" y="-190"/>
      <point x="81" y="-230"/>
      <point x="162" y="-230" type="curve" smooth="yes"/>
      <point x="269" y="-230"/>
      <point x="316" y="-161"/>
      <point x="360" y="-49" type="curve" smooth="yes"/>
      <point x="542" y="427" type="line"/>
      <point x="624" y="427" type="line"/>
      <point x="624" y="500" type="line"/>
      <point x="381" y="500" type="line"/>
      <point x="381" y="427" type="line"/>
      <point x="453" y="427" type="line"/>
      <point x="323" y="74" type="line"/>
      <point x="197" y="427" type="line"/>
      <point x="263" y="427" type="line"/>
      <point x="263" y="500" type="line"/>
      <point x="20" y="500" type="line"/>
      <point x="20" y="427" type="line"/>
    </contour>
  </outline>
</glyph>
<glyph name="z" format="1">
  <advance width="507"/>
  <unicode hex="007A"/>
  <outline>
    <contour>
      <point x="126" y="324" type="line"/>
      <point x="126" y="426" type="line"/>
      <point x="352" y="426" type="line"/>
      <point x="30" y="74" type="line"/>
      <point x="30" y="0" type="line"/>
      <point x="477" y="0" type="line"/>
      <point x="477" y="173" type="line"/>
      <point x="395" y="173" type="line"/>
      <point x="395" y="74" type="line"/>
      <point x="146" y="74" type="line"/>
      <point x="467" y="427" type="line"/>
      <point x="467" y="500" type="line"/>
      <point x="44" y="500" type="line"/>
      <point x="44" y="324" type="line"/>
    </contour>
  </outline>
</glyph>
<glyph name="braceleft" format="1">
  <advance width="461"/>
  <unicode hex="007B"/>
  <outline>
    <contour>
      <point x="129" y="225"/>
      <point x="165" y="203"/>
      <point x="165" y="149" type="curve" smooth="yes"/>
      <point x="164" y="69"/>
      <point x="156" y="-21"/>
      <point x="156" y="-71" type="curve" smooth="yes"/>
      <point x="156" y="-166"/>
      <point x="200" y="-213"/>
      <point x="292" y="-213" type="curve" smooth="yes"/>
      <point x="381" y="-213" type="line"/>
      <point x="381" y="-140" type="line"/>
      <point x="290" y="-140" type="line" smooth="yes"/>
      <point x="255" y="-140"/>
      <point x="244" y="-117"/>
      <point x="244" y="-81" type="curve" smooth="yes"/>
      <point x="244" y="-31"/>
      <point x="253" y="106"/>
      <point x="253" y="174" type="curve" smooth="yes"/>
      <point x="253" y="229"/>
      <point x="202" y="263"/>
      <point x="156" y="270" type="curve"/>
      <point x="202" y="276"/>
      <point x="253" y="310"/>
      <point x="253" y="365" type="curve" smooth="yes"/>
      <point x="253" y="433"/>
      <point x="244" y="534"/>
      <point x="244" y="584" type="curve" smooth="yes"/>
      <point x="244" y="620"/>
      <point x="255" y="643"/>
      <point x="290" y="643" type="curve" smooth="yes"/>
      <point x="381" y="643" type="line"/>
      <point x="381" y="716" type="line"/>
      <point x="292" y="716" type="line" smooth="yes"/>
      <point x="200" y="716"/>
      <point x="156" y="669"/>
      <point x="156" y="574" type="curve" smooth="yes"/>
      <point x="156" y="524"/>
      <point x="164" y="470"/>
      <point x="165" y="390" type="curve" smooth="yes"/>
      <point x="165" y="336"/>
      <point x="129" y="314"/>
      <point x="80" y="314" type="curve"/>
      <point x="80" y="225" type="line"/>
    </contour>
  </outline>
</glyph>
<glyph name="braceright" format="1">
  <advance width="461"/>
  <unicode hex="007D"/>
  <outline>
    <contour>
      <point x="381" y="314" type="line"/>
      <point x="332" y="314"/>
      <point x="296" y="336"/>
      <point x="296" y="390" type="curve" smooth="yes"/>
      <point x="297" y="470"/>
      <point x="305" y="524"/>
      <point x="305" y="574" type="curve" smooth="yes"/>
      <point x="305" y="669"/>
      <point x="261" y="716"/>
      <point x="169" y="716" type="curve" smooth="yes"/>
      <point x="80" y="716" type="line"/>
      <point x="80" y="643" type="line"/>
      <point x="171" y="643" type="line" smooth="yes"/>
      <point x="206" y="643"/>
      <point x="217" y="620"/>
      <point x="217" y="584" type="curve" smooth="yes"/>
      <point x="217" y="534"/>
      <point x="208" y="433"/>
      <point x="208" y="365" type="curve" smooth="yes"/>
      <point x="208" y="310"/>
      <point x="259" y="276"/>
      <point x="305" y="270" type="curve"/>
      <point x="259" y="263"/>
      <point x="208" y="229"/>
      <point x="208" y="174" type="curve" smooth="yes"/>
      <point x="208" y="106"/>
      <point x="217" y="-31"/>
      <point x="217" y="-81" type="curve" smooth="yes"/>
      <point x="217" y="-117"/>
      <point x="206" y="-140"/>
      <point x="171" y="-140" type="curve" smooth="yes"/>
      <point x="80" y="-140" type="line"/>
      <point x="80" y="-213" type="line"/>
      <point x="169" y="-213" type="line" smooth="yes"/>
      <point x="261" y="-213"/>
      <point x="305" y="-166"/>
      <point x="305" y="-71" type="curve" smooth="yes"/>
      <point x="305" y="-21"/>
      <point x="297" y="69"/>
      <point x="296" y="149" type="curve" smooth="yes"/>
      <point x="296" y="203"/>
      <point x="332" y="225"/>
      <point x="381" y="225" type="curve"/>
    </contour>
  </outline>
</glyph>
<glyph name="cent" format="1">
  <advance width="525"/>
  <unicode hex="00A2"/>
  <outline>
    <contour>
      <point x="211" y="-130" type="line"/>
      <point x="285" y="-130" type="line"/>
      <point x="285" y="617" type="line"/>
      <point x="211" y="617" type="line"/>
    </contour>
    <component base="c"/>
  </outline>
</glyph>
<glyph name="sterling" format="1">
  <advance width="572"/>
  <unicode hex="00A3"/>
  <outline>
    <contour>
      <point x="30" y="326" type="line"/>
      <point x="389" y="326" type="line"/>
      <point x="389" y="404" type="line"/>
      <point x="30" y="404" type="line"/>
    </contour>
    <contour>
      <point x="542" y="0" type="line"/>
      <point x="542" y="205" type="line"/>
      <point x="456" y="205" type="line"/>
      <point x="456" y="82" type="line"/>
      <point x="184" y="82" type="line"/>
      <point x="227" y="134"/>
      <point x="223" y="190"/>
      <point x="223" y="279" type="curve" smooth="yes"/>
      <point x="223" y="520" type="line" smooth="yes"/>
      <point x="223" y="581"/>
      <point x="254" y="630"/>
      <point x="315" y="630" type="curve" smooth="yes"/>
      <point x="408" y="630"/>
      <point x="455" y="551"/>
      <point x="455" y="455" type="curve"/>
      <point x="541" y="455" type="line"/>
      <point x="541" y="699" type="line"/>
      <point x="455" y="699" type="line"/>
      <point x="455" y="594" type="line"/>
      <point x="443" y="650"/>
      <point x="394" y="717"/>
      <point x="294" y="717" type="curve" smooth="yes"/>
      <point x="207" y="717"/>
      <point x="128" y="650"/>
      <point x="128" y="535" type="curve" smooth="yes"/>
      <point x="128" y="279" type="line" smooth="yes"/>
      <point x="128" y="193"/>
      <point x="134" y="134"/>
      <point x="80" y="82" type="curve"/>
      <point x="30" y="82" type="line"/>
      <point x="30" y="0" type="line"/>
    </contour>
  </outline>
</glyph>
<glyph name="currency" format="1">
  <advance width="600"/>
  <unicode hex="00A4"/>
  <outline>
    <contour>
      <point x="147" y="397" type="line"/>
      <point x="6" y="538" type="line"/>
      <point x="59" y="590" type="line"/>
      <point x="191" y="460" type="line"/>
    </contour>
    <contour>
      <point x="371" y="455" type="line"/>
      <point x="505" y="590" type="line"/>
      <point x="557" y="537" type="line"/>
      <point x="431" y="411" type="line"/>
    </contour>
    <contour>
      <point x="165" y="94"/>
      <point x="67" y="192"/>
      <point x="67" y="311" type="curve" smooth="yes"/>
      <point x="67" y="430"/>
      <point x="165" y="528"/>
      <point x="284" y="528" type="curve" smooth="yes"/>
      <point x="404" y="528"/>
      <point x="502" y="430"/>
      <point x="502" y="311" type="curve" smooth="yes"/>
      <point x="502" y="192"/>
      <point x="404" y="94"/>
      <point x="284" y="94" type="curve" smooth="yes"/>
    </contour>
    <contour>
      <point x="358" y="177"/>
      <point x="418" y="238"/>
      <point x="418" y="311" type="curve" smooth="yes"/>
      <point x="418" y="384"/>
      <point x="358" y="445"/>
      <point x="284" y="445" type="curve" smooth="yes"/>
      <point x="211" y="445"/>
      <point x="151" y="384"/>
      <point x="151" y="311" type="curve" smooth="yes"/>
      <point x="151" y="238"/>
      <point x="211" y="177"/>
      <point x="284" y="177" type="curve" smooth="yes"/>
    </contour>
    <contour>
      <point x="192" y="172" type="line"/>
      <point x="66" y="45" type="line"/>
      <point x="14" y="98" type="line"/>
      <point x="140" y="224" type="line"/>
    </contour>
    <contour>
      <point x="424" y="225" type="line"/>
      <point x="557" y="94" type="line"/>
      <point x="504" y="42" type="line"/>
      <point x="372" y="172" type="line"/>
    </contour>
  </outline>
</glyph>
<glyph name="yen" format="1">
  <advance width="669"/>
  <unicode hex="00A5"/>
  <outline>
    <contour>
      <point x="154" y="141" type="line"/>
      <point x="531" y="141" type="line"/>
      <point x="531" y="203" type="line"/>
      <point x="154" y="203" type="line"/>
    </contour>
    <contour>
      <point x="154" y="254" type="line"/>
      <point x="531" y="254" type="line"/>
      <point x="531" y="316" type="line"/>
      <point x="154" y="316" type="line"/>
    </contour>
    <contour>
      <point x="109" y="617" type="line"/>
      <point x="270" y="285" type="line"/>
      <point x="300" y="286" type="line"/>
      <point x="300" y="82" type="line"/>
      <point x="223" y="82" type="line"/>
      <point x="223" y="0" type="line"/>
      <point x="468" y="0" type="line"/>
      <point x="468" y="82" type="line"/>
      <point x="392" y="82" type="line"/>
      <point x="392" y="287" type="line"/>
      <point x="422" y="287" type="line"/>
      <point x="580" y="617" type="line"/>
      <point x="656" y="617" type="line"/>
      <point x="656" y="699" type="line"/>
      <point x="402" y="699" type="line"/>
      <point x="402" y="617" type="line"/>
      <point x="479" y="617" type="line"/>
      <point x="346" y="322" type="line"/>
      <point x="209" y="617" type="line"/>
      <point x="286" y="617" type="line"/>
      <point x="286" y="699" type="line"/>
      <point x="33" y="699" type="line"/>
      <point x="33" y="617" type="line"/>
    </contour>
  </outline>
</glyph>
<glyph name="brokenbar" format="1">
  <advance width="292"/>
  <unicode hex="00A6"/>
  <outline>
    <contour>
      <point x="100" y="255" type="line"/>
      <point x="100" y="-120" type="line"/>
      <point x="192" y="-120" type="line"/>
      <point x="192" y="255" type="line"/>
    </contour>
    <contour>
      <point x="192" y="435" type="line"/>
      <point x="192" y="785" type="line"/>
      <point x="100" y="785" type="line"/>
      <point x="100" y="435" type="line"/>
    </contour>
  </outline>
</glyph>
<glyph name="section" format="1">
  <advance width="600"/>
  <unicode hex="00A7"/>
  <outline>
    <contour>
      <point x="182" y="-83" type="line"/>
      <point x="182" y="-12" type="line"/>
      <point x="188" y="-39"/>
      <point x="227" y="-98"/>
      <point x="345" y="-98" type="curve" smooth="yes"/>
      <point x="420" y="-98"/>
      <point x="517" y="-53"/>
      <point x="517" y="46" type="curve" smooth="yes"/>
      <point x="517" y="105"/>
      <point x="478" y="141"/>
      <point x="435" y="166" type="curve"/>
      <point x="481" y="188"/>
      <point x="517" y="228"/>
      <point x="517" y="289" type="curve" smooth="yes"/>
      <point x="517" y="387"/>
      <point x="409" y="424"/>
      <point x="352" y="444" type="curve" smooth="yes"/>
      <point x="256" y="478"/>
      <point x="191" y="493"/>
      <point x="191" y="535" type="curve" smooth="yes"/>
      <point x="191" y="572"/>
      <point x="218" y="604"/>
      <point x="286" y="604" type="curve" smooth="yes"/>
      <point x="358" y="604"/>
      <point x="400" y="546"/>
      <point x="409" y="500" type="curve"/>
      <point x="491" y="500" type="line"/>
      <point x="491" y="660" type="line"/>
      <point x="409" y="660" type="line"/>
      <point x="409" y="594" type="line"/>
      <point x="401" y="626"/>
      <point x="342" y="679"/>
      <point x="263" y="679" type="curve" smooth="yes"/>
      <point x="190" y="679"/>
      <point x="103" y="629"/>
      <point x="103" y="535" type="curve" smooth="yes"/>
      <point x="103" y="475"/>
      <point x="134" y="439"/>
      <point x="177" y="414" type="curve"/>
      <point x="135" y="390"/>
      <point x="103" y="349"/>
      <point x="103" y="292" type="curve" smooth="yes"/>
      <point x="103" y="181"/>
      <point x="208" y="153"/>
      <point x="305" y="118" type="curve" smooth="yes"/>
      <point x="376" y="92"/>
      <point x="415" y="72"/>
      <point x="415" y="37" type="curve" smooth="yes"/>
      <point x="415" y="8"/>
      <point x="390" y="-19"/>
      <point x="312" y="-19" type="curve" smooth="yes"/>
      <point x="218" y="-19"/>
      <point x="191" y="37"/>
      <point x="182" y="77" type="curve"/>
      <point x="100" y="77" type="line"/>
      <point x="100" y="-83" type="line"/>
    </contour>
    <contour>
      <point x="191" y="343"/>
      <point x="222" y="367"/>
      <point x="250" y="382" type="curve"/>
      <point x="305" y="362" type="line" smooth="yes"/>
      <point x="377" y="336"/>
      <point x="427" y="316"/>
      <point x="427" y="269" type="curve" smooth="yes"/>
      <point x="427" y="232"/>
      <point x="394" y="210"/>
      <point x="360" y="197" type="curve"/>
      <point x="353" y="199" type="line" smooth="yes"/>
      <point x="255" y="234"/>
      <point x="191" y="256"/>
      <point x="191" y="304" type="curve" smooth="yes"/>
    </contour>
  </outline>
</glyph>
<glyph name="dieresis" format="1">
  <advance width="718"/>
  <unicode hex="00A8"/>
  <outline>
    <contour>
      <point x="245" y="587"/>
      <point x="273" y="615"/>
      <point x="273" y="649" type="curve" smooth="yes"/>
      <point x="273" y="682"/>
      <point x="245" y="710"/>
      <point x="212" y="710" type="curve" smooth="yes"/>
      <point x="178" y="710"/>
      <point x="150" y="682"/>
      <point x="150" y="649" type="curve" smooth="yes"/>
      <point x="150" y="615"/>
      <point x="178" y="587"/>
      <point x="212" y="587" type="curve" smooth="yes"/>
    </contour>
    <contour>
      <point x="445" y="587"/>
      <point x="473" y="615"/>
      <point x="473" y="649" type="curve" smooth="yes"/>
      <point x="473" y="682"/>
      <point x="445" y="710"/>
      <point x="412" y="710" type="curve" smooth="yes"/>
      <point x="378" y="710"/>
      <point x="350" y="682"/>
      <point x="350" y="649" type="curve" smooth="yes"/>
      <point x="350" y="615"/>
      <point x="378" y="587"/>
      <point x="412" y="587" type="curve" smooth="yes"/>
    </contour>
  </outline>
</glyph>
<glyph name="copyright" format="1">
  <advance width="753"/>
  <unicode hex="00A9"/>
  <outline>
    <contour>
      <point x="557" y="112"/>
      <point x="703" y="258"/>
      <point x="703" y="440" type="curve" smooth="yes"/>
      <point x="703" y="619"/>
      <point x="557" y="765"/>
      <point x="376" y="765" type="curve" smooth="yes"/>
      <point x="196" y="765"/>
      <point x="50" y="619"/>
      <point x="50" y="440" type="curve" smooth="yes"/>
      <point x="50" y="258"/>
      <point x="196" y="112"/>
      <point x="376" y="112" type="curve" smooth="yes"/>
    </contour>
    <contour>
      <point x="232" y="172"/>
      <point x="115" y="293"/>
      <point x="115" y="440" type="curve" smooth="yes"/>
      <point x="115" y="586"/>
      <point x="232" y="706"/>
      <point x="379" y="706" type="curve" smooth="yes"/>
      <point x="520" y="706"/>
      <point x="638" y="586"/>
      <point x="638" y="440" type="curve" smooth="yes"/>
      <point x="638" y="293"/>
      <point x="520" y="172"/>
      <point x="379" y="172" type="curve" smooth="yes"/>
    </contour>
    <contour>
      <point x="216" y="332"/>
      <point x="280" y="261"/>
      <point x="371" y="261" type="curve" smooth="yes"/>
      <point x="438" y="261"/>
      <point x="485" y="294"/>
      <point x="512" y="332" type="curve"/>
      <point x="468" y="371" type="line"/>
      <point x="456" y="356"/>
      <point x="441" y="322"/>
      <point x="373" y="322" type="curve" smooth="yes"/>
      <point x="299" y="322"/>
      <point x="280" y="377"/>
      <point x="280" y="447" type="curve" smooth="yes"/>
      <point x="280" y="522"/>
      <point x="308" y="562"/>
      <point x="373" y="562" type="curve" smooth="yes"/>
      <point x="439" y="562"/>
      <point x="449" y="503"/>
      <point x="452" y="489" type="curve"/>
      <point x="502" y="489" type="line"/>
      <point x="502" y="613" type="line"/>
      <point x="450" y="613" type="line"/>
      <point x="450" y="571" type="line"/>
      <point x="444" y="588"/>
      <point x="427" y="623"/>
      <point x="371" y="623" type="curve" smooth="yes"/>
      <point x="290" y="623"/>
      <point x="216" y="558"/>
      <point x="216" y="447" type="curve" smooth="yes"/>
    </contour>
  </outline>
</glyph>
<glyph name="guillemotleft" format="1">
  <advance width="518"/>
  <unicode hex="00AB"/>
  <outline>
    <contour>
      <point x="365" y="278" type="line"/>
      <point x="467" y="126" type="line"/>
      <point x="412" y="82" type="line"/>
      <point x="252" y="278" type="line"/>
      <point x="413" y="473" type="line"/>
      <point x="468" y="430" type="line"/>
    </contour>
    <contour>
      <point x="163" y="278" type="line"/>
      <point x="265" y="126" type="line"/>
      <point x="210" y="82" type="line"/>
      <point x="50" y="278" type="line"/>
      <point x="211" y="473" type="line"/>
      <point x="266" y="430" type="line"/>
    </contour>
  </outline>
</glyph>
<glyph name="registered" format="1">
  <advance width="615"/>
  <unicode hex="00AE"/>
  <outline>
    <contour>
      <point x="311" y="374" type="line"/>
      <point x="311" y="412" type="line"/>
      <point x="281" y="412" type="line"/>
      <point x="281" y="488" type="line"/>
      <point x="307" y="488" type="line" smooth="yes"/>
      <point x="340" y="488"/>
      <point x="351" y="477"/>
      <point x="355" y="449" type="curve" smooth="yes"/>
      <point x="365" y="374" type="line"/>
      <point x="446" y="374" type="line"/>
      <point x="446" y="413" type="line"/>
      <point x="409" y="413" type="line"/>
      <point x="398" y="473" type="line" smooth="yes"/>
      <point x="395" y="488"/>
      <point x="385" y="505"/>
      <point x="362" y="511" type="curve"/>
      <point x="381" y="519"/>
      <point x="406" y="539"/>
      <point x="406" y="576" type="curve" smooth="yes"/>
      <point x="407" y="613"/>
      <point x="387" y="655"/>
      <point x="320" y="655" type="curve" smooth="yes"/>
      <point x="198" y="655" type="line"/>
      <point x="198" y="615" type="line"/>
      <point x="235" y="615" type="line"/>
      <point x="235" y="411" type="line"/>
      <point x="198" y="411" type="line"/>
      <point x="198" y="374" type="line"/>
    </contour>
    <contour>
      <point x="280" y="614" type="line"/>
      <point x="312" y="614" type="line" smooth="yes"/>
      <point x="345" y="614"/>
      <point x="358" y="600"/>
      <point x="358" y="575" type="curve" smooth="yes"/>
      <point x="358" y="552"/>
      <point x="347" y="531"/>
      <point x="316" y="531" type="curve" smooth="yes"/>
      <point x="280" y="531" type="line"/>
    </contour>
    <contour>
      <point x="450" y="250"/>
      <point x="565" y="365"/>
      <point x="565" y="508" type="curve" smooth="yes"/>
      <point x="565" y="650"/>
      <point x="450" y="765"/>
      <point x="307" y="765" type="curve" smooth="yes"/>
      <point x="165" y="765"/>
      <point x="50" y="650"/>
      <point x="50" y="508" type="curve" smooth="yes"/>
      <point x="50" y="365"/>
      <point x="165" y="250"/>
      <point x="307" y="250" type="curve" smooth="yes"/>
    </contour>
    <contour>
      <point x="192" y="295"/>
      <point x="106" y="390"/>
      <point x="106" y="507" type="curve" smooth="yes"/>
      <point x="106" y="621"/>
      <point x="192" y="716"/>
      <point x="310" y="716" type="curve" smooth="yes"/>
      <point x="424" y="716"/>
      <point x="510" y="621"/>
      <point x="510" y="507" type="curve" smooth="yes"/>
      <point x="510" y="390"/>
      <point x="424" y="295"/>
      <point x="310" y="295" type="curve" smooth="yes"/>
    </contour>
  </outline>
</glyph>
<glyph name="macron" format="1">
  <advance width="600"/>
  <unicode hex="00AF"/>
  <outline>
    <contour>
      <point x="175" y="617" type="line"/>
      <point x="425" y="617" type="line"/>
      <point x="425" y="699" type="line"/>
      <point x="175" y="699" type="line"/>
    </contour>
  </outline>
</glyph>
<glyph name="degree" format="1">
  <advance width="384"/>
  <unicode hex="00B0"/>
  <outline>
    <contour>
      <point x="105" y="403"/>
      <point x="33" y="475"/>
      <point x="33" y="562" type="curve" smooth="yes"/>
      <point x="33" y="649"/>
      <point x="105" y="721"/>
      <point x="192" y="721" type="curve" smooth="yes"/>
      <point x="279" y="721"/>
      <point x="351" y="649"/>
      <point x="351" y="562" type="curve" smooth="yes"/>
      <point x="351" y="475"/>
      <point x="279" y="403"/>
      <point x="192" y="403" type="curve" smooth="yes"/>
    </contour>
    <contour>
      <point x="235" y="482"/>
      <point x="272" y="519"/>
      <point x="272" y="562" type="curve" smooth="yes"/>
      <point x="272" y="605"/>
      <point x="235" y="642"/>
      <point x="192" y="642" type="curve" smooth="yes"/>
      <point x="149" y="642"/>
      <point x="112" y="605"/>
      <point x="112" y="562" type="curve" smooth="yes"/>
      <point x="112" y="519"/>
      <point x="149" y="482"/>
      <point x="192" y="482" type="curve" smooth="yes"/>
    </contour>
  </outline>
</glyph>
<glyph name="acute" format="1">
  <advance width="440"/>
  <unicode hex="00B4"/>
  <outline>
    <contour>
      <point x="156" y="566" type="line" smooth="yes"/>
      <point x="114" y="626" type="line" smooth="yes"/>
      <point x="281" y="755" type="line" smooth="yes"/>
      <point x="345" y="673" type="line" smooth="yes"/>
    </contour>
  </outline>
</glyph>
<glyph name="paragraph" format="1">
  <advance width="540"/>
  <unicode hex="00B6"/>
  <outline>
    <contour>
      <point x="408" y="620" type="line"/>
      <point x="408" y="-205" type="line"/>
      <point x="490" y="-205" type="line"/>
      <point x="490" y="620" type="line"/>
    </contour>
    <contour>
      <point x="243" y="620" type="line"/>
      <point x="243" y="-205" type="line"/>
      <point x="325" y="-205" type="line"/>
      <point x="325" y="620" type="line"/>
    </contour>
    <contour>
      <point x="277" y="547" type="line"/>
      <point x="452" y="547" type="line"/>
      <point x="452" y="620" type="line"/>
      <point x="277" y="620" type="line"/>
    </contour>
    <contour>
      <point x="243" y="620" type="line"/>
      <point x="136" y="620"/>
      <point x="50" y="534"/>
      <point x="50" y="427" type="curve" smooth="yes"/>
      <point x="50" y="320"/>
      <point x="136" y="234"/>
      <point x="243" y="234" type="curve"/>
    </contour>
  </outline>
</glyph>
<glyph name="guillemotright" format="1">
  <advance width="518"/>
  <unicode hex="00BB"/>
  <outline>
    <contour>
      <point x="105" y="473" type="line" smooth="yes"/>
      <point x="266" y="278" type="line" smooth="yes"/>
      <point x="106" y="82" type="line" smooth="yes"/>
      <point x="51" y="126" type="line" smooth="yes"/>
      <point x="153" y="278" type="line" smooth="yes"/>
      <point x="50" y="430" type="line" smooth="yes"/>
    </contour>
    <contour>
      <point x="307" y="473" type="line" smooth="yes"/>
      <point x="468" y="278" type="line" smooth="yes"/>
      <point x="308" y="82" type="line" smooth="yes"/>
      <point x="253" y="126" type="line" smooth="yes"/>
      <point x="355" y="278" type="line" smooth="yes"/>
      <point x="252" y="430" type="line" smooth="yes"/>
    </contour>
  </outline>
</glyph>
<glyph name="Aring" format="1">
  <advance width="772"/>
  <unicode hex="00C5"/>
  <outline>
    <contour>
      <point x="244" y="663"/>
      <point x="293" y="606"/>
      <point x="360" y="594" type="curve" smooth="yes"/>
      <point x="368" y="593"/>
      <point x="379" y="641"/>
      <point x="387" y="641" type="curve"/>
      <point x="398" y="641"/>
      <point x="408" y="593"/>
      <point x="418" y="595" type="curve" smooth="yes"/>
      <point x="482" y="610"/>
      <point x="530" y="665"/>
      <point x="530" y="735" type="curve"/>
      <point x="530" y="812"/>
      <point x="464" y="879"/>
      <point x="386" y="879" type="curve"/>
      <point x="306" y="879"/>
      <point x="244" y="812"/>
      <point x="244" y="735" type="curve"/>
    </contour>
    <contour>
      <point x="459" y="698"/>
      <point x="426" y="664"/>
      <point x="386" y="664" type="curve"/>
      <point x="345" y="664"/>
      <point x="315" y="698"/>
      <point x="315" y="735" type="curve"/>
      <point x="315" y="778"/>
      <point x="345" y="809"/>
      <point x="386" y="807" type="curve"/>
      <point x="426" y="807"/>
      <point x="459" y="777"/>
      <point x="459" y="735" type="curve"/>
    </contour>
    <contour>
      <point x="288" y="318" type="line"/>
      <point x="403" y="659" type="line"/>
      <point x="371" y="659" type="line"/>
      <point x="487" y="318" type="line"/>
      <point x="565" y="82" type="line"/>
      <point x="473" y="82" type="line"/>
      <point x="473" y="0" type="line"/>
      <point x="736" y="0" type="line"/>
      <point x="736" y="82" type="line"/>
      <point x="657" y="82" type="line"/>
      <point x="453" y="699" type="line"/>
      <point x="387" y="641" type="line"/>
      <point x="310" y="699" type="line"/>
      <point x="176" y="699" type="line"/>
      <point x="176" y="617" type="line"/>
      <point x="297" y="617" type="line"/>
      <point x="115" y="82" type="line"/>
      <point x="36" y="82" type="line"/>
      <point x="36" y="0" type="line"/>
      <point x="302" y="0" type="line"/>
      <point x="302" y="82" type="line"/>
      <point x="210" y="82" type="line"/>
    </contour>
    <contour>
      <point x="216" y="236" type="line"/>
      <point x="551" y="236" type="line"/>
      <point x="551" y="318" type="line"/>
      <point x="216" y="318" type="line"/>
    </contour>
  </outline>
</glyph>
<glyph name="AE" format="1">
  <advance width="943"/>
  <unicode hex="00C6"/>
  <outline>
    <contour>
      <point x="301" y="0" type="line"/>
      <point x="301" y="82" type="line"/>
      <point x="209" y="82" type="line"/>
      <point x="284" y="240" type="line"/>
      <point x="494" y="240" type="line"/>
      <point x="499" y="180" type="line"/>
      <point x="508" y="83" type="line"/>
      <point x="429" y="83" type="line"/>
      <point x="429" y="82" type="line"/>
      <point x="426" y="82" type="line"/>
      <point x="426" y="0" type="line"/>
      <point x="679" y="0" type="line"/>
      <point x="679" y="1" type="line"/>
      <point x="893" y="1" type="line"/>
      <point x="893" y="177" type="line"/>
      <point x="807" y="177" type="line"/>
      <point x="807" y="83" type="line"/>
      <point x="600" y="83" type="line"/>
      <point x="600" y="85" type="line"/>
      <point x="579" y="324" type="line"/>
      <point x="752" y="324" type="line"/>
      <point x="752" y="406" type="line"/>
      <point x="572" y="406" type="line"/>
      <point x="553" y="618" type="line"/>
      <point x="797" y="618" type="line"/>
      <point x="797" y="532" type="line"/>
      <point x="883" y="532" type="line"/>
      <point x="883" y="699" type="line"/>
      <point x="273" y="699" type="line"/>
      <point x="273" y="617" type="line"/>
      <point x="358" y="617" type="line"/>
      <point x="115" y="82" type="line"/>
      <point x="36" y="82" type="line"/>
      <point x="36" y="0" type="line"/>
    </contour>
    <contour>
      <point x="473" y="653" type="line"/>
      <point x="463" y="656" type="line"/>
      <point x="487" y="322" type="line"/>
      <point x="322" y="322" type="line"/>
    </contour>
  </outline>
</glyph>
<glyph name="multiply" format="1">
  <advance width="600"/>
  <unicode hex="00D7"/>
  <outline>
    <contour>
      <point x="95" y="439" type="line"/>
      <point x="389" y="145" type="line"/>
      <point x="450" y="205" type="line"/>
      <point x="155" y="500" type="line"/>
    </contour>
    <contour>
      <point x="386" y="496" type="line"/>
      <point x="91" y="201" type="line"/>
      <point x="152" y="140" type="line"/>
      <point x="447" y="435" type="line"/>
    </contour>
  </outline>
</glyph>
<glyph name="Oslash" format="1">
  <advance width="740"/>
  <unicode hex="00D8"/>
  <outline>
    <contour>
      <point x="133" y="-63" type="line"/>
      <point x="646" y="741" type="line"/>
      <point x="575" y="778" type="line"/>
      <point x="67" y="-18" type="line"/>
    </contour>
    <component base="O"/>
  </outline>
</glyph>
<glyph name="Thorn" format="1">
  <advance width="571"/>
  <unicode hex="00DE"/>
  <outline>
    <contour>
      <point x="179" y="179" type="line"/>
      <point x="336" y="179" type="line" smooth="yes"/>
      <point x="443" y="179"/>
      <point x="531" y="274"/>
      <point x="531" y="363" type="curve" smooth="yes"/>
      <point x="531" y="478"/>
      <point x="437" y="555"/>
      <point x="326" y="555" type="curve" smooth="yes"/>
      <point x="179" y="555" type="line"/>
      <point x="179" y="480" type="line"/>
      <point x="306" y="480" type="line" smooth="yes"/>
      <point x="396" y="480"/>
      <point x="439" y="431"/>
      <point x="439" y="363" type="curve" smooth="yes"/>
      <point x="439" y="302"/>
      <point x="386" y="254"/>
      <point x="313" y="254" type="curve" smooth="yes"/>
      <point x="179" y="254" type="line"/>
    </contour>
    <contour>
      <point x="201" y="699" type="line"/>
      <point x="30" y="699" type="line"/>
      <point x="30" y="622" type="line"/>
      <point x="113" y="622" type="line"/>
      <point x="113" y="82" type="line"/>
      <point x="30" y="82" type="line"/>
      <point x="30" y="0" type="line"/>
      <point x="280" y="0" type="line"/>
      <point x="280" y="82" type="line"/>
      <point x="201" y="82" type="line"/>
    </contour>
    <contour>
      <point x="85" y="622" type="line"/>
      <point x="280" y="622" type="line"/>
      <point x="280" y="699" type="line"/>
      <point x="85" y="699" type="line"/>
    </contour>
  </outline>
</glyph>
<glyph name="germandbls" format="1">
  <advance width="666"/>
  <unicode hex="00DF"/>
  <outline>
    <contour>
      <point x="118" y="404" type="line"/>
      <point x="118" y="74" type="line"/>
      <point x="30" y="74" type="line"/>
      <point x="30" y="0" type="line"/>
      <point x="259" y="0" type="line"/>
      <point x="259" y="74" type="line"/>
      <point x="206" y="74" type="line"/>
      <point x="205" y="546" type="line"/>
      <point x="205" y="657"/>
      <point x="268" y="685"/>
      <point x="361" y="685" type="curve" smooth="yes"/>
      <point x="435" y="685"/>
      <point x="480" y="653"/>
      <point x="480" y="608" type="curve" smooth="yes"/>
      <point x="480" y="570"/>
      <point x="455" y="552"/>
      <point x="412" y="515" type="curve" smooth="yes"/>
      <point x="365" y="475"/>
      <point x="327" y="440"/>
      <point x="327" y="379" type="curve" smooth="yes"/>
      <point x="327" y="319"/>
      <point x="365" y="275"/>
      <point x="438" y="235" type="curve" smooth="yes"/>
      <point x="479" y="212"/>
      <point x="549" y="180"/>
      <point x="549" y="127" type="curve" smooth="yes"/>
      <point x="549" y="85"/>
      <point x="516" y="58"/>
      <point x="463" y="58" type="curve" smooth="yes"/>
      <point x="410" y="58"/>
      <point x="385" y="103"/>
      <point x="379" y="146" type="curve"/>
      <point x="306" y="146" type="line"/>
      <point x="306" y="0" type="line"/>
      <point x="379" y="0" type="line"/>
      <point x="379" y="65" type="line"/>
      <point x="384" y="40"/>
      <point x="406" y="-14"/>
      <point x="483" y="-14" type="curve" smooth="yes"/>
      <point x="555" y="-14"/>
      <point x="641" y="28"/>
      <point x="641" y="125" type="curve" smooth="yes"/>
      <point x="641" y="220"/>
      <point x="564" y="263"/>
      <point x="506" y="293" type="curve" smooth="yes"/>
      <point x="485" y="304"/>
      <point x="419" y="342"/>
      <point x="419" y="379" type="curve" smooth="yes"/>
      <point x="419" y="409"/>
      <point x="457" y="440"/>
      <point x="487" y="466" type="curve" smooth="yes"/>
      <point x="563" y="532"/>
      <point x="570" y="568"/>
      <point x="570" y="608" type="curve" smooth="yes"/>
      <point x="570" y="692"/>
      <point x="499" y="764"/>
      <point x="359" y="764" type="curve" smooth="yes"/>
      <point x="238" y="764"/>
      <point x="118" y="712"/>
      <point x="118" y="568" type="curve" smooth="yes"/>
      <point x="118" y="478" type="line"/>
      <point x="30" y="478" type="line"/>
      <point x="30" y="404" type="line"/>
    </contour>
  </outline>
</glyph>
<glyph name="aring" format="1">
  <advance width="544"/>
  <unicode hex="00E5"/>
  <outline>
    <contour>
      <point x="133" y="609"/>
      <point x="184" y="558"/>
      <point x="250" y="558" type="curve"/>
      <point x="315" y="558"/>
      <point x="369" y="609"/>
      <point x="369" y="676" type="curve"/>
      <point x="369" y="740"/>
      <point x="315" y="795"/>
      <point x="250" y="795" type="curve"/>
      <point x="184" y="795"/>
      <point x="133" y="740"/>
      <point x="133" y="676" type="curve"/>
    </contour>
    <contour>
      <point x="308" y="647"/>
      <point x="282" y="620"/>
      <point x="250" y="620" type="curve"/>
      <point x="218" y="620"/>
      <point x="194" y="647"/>
      <point x="194" y="676" type="curve"/>
      <point x="194" y="710"/>
      <point x="218" y="734"/>
      <point x="250" y="733" type="curve"/>
      <point x="282" y="733"/>
      <point x="308" y="709"/>
      <point x="308" y="676" type="curve"/>
    </contour>
    <component base="a"/>
  </outline>
</glyph>
<glyph name="ae" format="1">
  <advance width="802"/>
  <unicode hex="00E6"/>
  <outline>
    <contour>
      <point x="348" y="237" type="line"/>
      <point x="376" y="145" type="line"/>
      <point x="436" y="174" type="line"/>
      <point x="436" y="323" type="line" smooth="yes"/>
      <point x="436" y="445"/>
      <point x="348" y="515"/>
      <point x="257" y="515" type="curve" smooth="yes"/>
      <point x="148" y="515"/>
      <point x="86" y="477"/>
      <point x="59" y="458" type="curve"/>
      <point x="97" y="399" type="line"/>
      <point x="106" y="406"/>
      <point x="163" y="438"/>
      <point x="234" y="438" type="curve" smooth="yes"/>
      <point x="302" y="438"/>
      <point x="348" y="393"/>
      <point x="348" y="305" type="curve"/>
    </contour>
    <contour>
      <point x="363" y="165" type="line"/>
      <point x="348" y="126"/>
      <point x="294" y="68"/>
      <point x="231" y="68" type="curve" smooth="yes"/>
      <point x="172" y="68"/>
      <point x="125" y="94"/>
      <point x="125" y="162" type="curve" smooth="yes"/>
      <point x="125" y="221"/>
      <point x="167" y="258"/>
      <point x="229" y="258" type="curve" smooth="yes"/>
      <point x="310" y="258"/>
      <point x="340" y="228"/>
      <point x="360" y="202" type="curve"/>
      <point x="360" y="275" type="line"/>
      <point x="325" y="311"/>
      <point x="290" y="332"/>
      <point x="228" y="332" type="curve" smooth="yes"/>
      <point x="126" y="332"/>
      <point x="30" y="261"/>
      <point x="30" y="148" type="curve" smooth="yes"/>
      <point x="30" y="47"/>
      <point x="120" y="-19"/>
      <point x="212" y="-19" type="curve" smooth="yes"/>
      <point x="348" y="-19"/>
      <point x="390" y="82"/>
      <point x="408" y="123" type="curve"/>
    </contour>
    <contour>
      <point x="771" y="226" type="line"/>
      <point x="772" y="234"/>
      <point x="772" y="260"/>
      <point x="772" y="269" type="curve" smooth="yes"/>
      <point x="772" y="305"/>
      <point x="767" y="357"/>
      <point x="745" y="401" type="curve" smooth="yes"/>
      <point x="709" y="471"/>
      <point x="649" y="519"/>
      <point x="563" y="519" type="curve" smooth="yes"/>
      <point x="418" y="519"/>
      <point x="348" y="398"/>
      <point x="348" y="250" type="curve" smooth="yes"/>
      <point x="348" y="100"/>
      <point x="413" y="-15"/>
      <point x="563" y="-15" type="curve" smooth="yes"/>
      <point x="662" y="-15"/>
      <point x="725" y="25"/>
      <point x="764" y="74" type="curve"/>
      <point x="704" y="131" type="line"/>
      <point x="674" y="89"/>
      <point x="637" y="67"/>
      <point x="565" y="67" type="curve" smooth="yes"/>
      <point x="465" y="67"/>
      <point x="435" y="145"/>
      <point x="435" y="250" type="curve" smooth="yes"/>
      <point x="435" y="332"/>
      <point x="458" y="437"/>
      <point x="563" y="437" type="curve" smooth="yes"/>
      <point x="659" y="437"/>
      <point x="685" y="325"/>
      <point x="685" y="288" type="curve" smooth="yes"/>
      <point x="685" y="280"/>
      <point x="685" y="234"/>
      <point x="684" y="226" type="curve"/>
    </contour>
    <contour>
      <point x="394" y="226" type="line"/>
      <point x="747" y="226" type="line"/>
      <point x="747" y="303" type="line"/>
      <point x="394" y="303" type="line"/>
    </contour>
  </outline>
</glyph>
<glyph name="eth" format="1">
  <advance width="524"/>
  <unicode hex="00F0"/>
  <outline>
    <contour>
      <point x="148" y="74"/>
      <point x="112" y="162"/>
      <point x="112" y="250" type="curve" smooth="yes"/>
      <point x="112" y="332"/>
      <point x="148" y="437"/>
      <point x="261" y="437" type="curve" smooth="yes"/>
      <point x="374" y="437"/>
      <point x="412" y="332"/>
      <point x="412" y="250" type="curve" smooth="yes"/>
      <point x="412" y="162"/>
      <point x="374" y="74"/>
      <point x="261" y="74" type="curve" smooth="yes"/>
    </contour>
    <contour>
      <point x="164" y="554" type="line"/>
      <point x="407" y="717" type="line"/>
      <point x="364" y="759" type="line"/>
      <point x="128" y="596" type="line"/>
    </contour>
    <contour>
      <point x="20" y="109"/>
      <point x="106" y="-15"/>
      <point x="261" y="-15" type="curve" smooth="yes"/>
      <point x="415" y="-15"/>
      <point x="504" y="109"/>
      <point x="504" y="250" type="curve"/>
      <point x="504" y="255" type="line"/>
      <point x="504" y="572"/>
      <point x="322" y="695"/>
      <point x="193" y="759" type="curve"/>
      <point x="139" y="711" type="line"/>
      <point x="198" y="684"/>
      <point x="323" y="612"/>
      <point x="381" y="448" type="curve"/>
      <point x="352" y="489"/>
      <point x="303" y="519"/>
      <point x="246" y="519" type="curve" smooth="yes"/>
      <point x="93" y="519"/>
      <point x="20" y="393"/>
      <point x="20" y="250" type="curve" smooth="yes"/>
    </contour>
  </outline>
</glyph>
<glyph name="divide" format="1">
  <advance width="417"/>
  <unicode hex="00F7"/>
  <outline>
    <contour>
      <point x="20" y="283" type="line"/>
      <point x="397" y="283" type="line"/>
      <point x="397" y="365" type="line"/>
      <point x="20" y="365" type="line"/>
    </contour>
    <component base="dotaccentcomb" xOffset="62" yOffset="-530"/>
    <component base="dotaccentcomb" xOffset="62" yOffset="-128"/>
  </outline>
</glyph>
<glyph name="oslash" format="1">
  <advance width="574"/>
  <unicode hex="00F8"/>
  <outline>
    <contour>
      <point x="103" y="-59" type="line"/>
      <point x="481" y="524" type="line"/>
      <point x="425" y="562" type="line"/>
      <point x="51" y="-21" type="line"/>
    </contour>
    <component base="o"/>
  </outline>
</glyph>
<glyph name="thorn" format="1">
  <advance width="607"/>
  <unicode hex="00FE"/>
  <outline>
    <contour>
      <point x="284" y="-207" type="line"/>
      <point x="284" y="-133" type="line"/>
      <point x="196" y="-133" type="line"/>
      <point x="196" y="749" type="line"/>
      <point x="20" y="749" type="line"/>
      <point x="20" y="675" type="line"/>
      <point x="108" y="675" type="line"/>
      <point x="108" y="-133" type="line"/>
      <point x="20" y="-133" type="line"/>
      <point x="20" y="-207" type="line"/>
    </contour>
    <component base="_part.pdbqbowl" xOffset="-1"/>
  </outline>
</glyph>
<glyph name="abreve" format="1">
  <advance width="544"/>
  <unicode hex="0103"/>
  <outline>
    <contour>
      <point x="114" y="736" type="line"/>
      <point x="114" y="658"/>
      <point x="173" y="599"/>
      <point x="250" y="599" type="curve"/>
      <point x="325" y="599"/>
      <point x="388" y="658"/>
      <point x="388" y="736" type="curve"/>
      <point x="317" y="736" type="line"/>
      <point x="317" y="702"/>
      <point x="287" y="671"/>
      <point x="250" y="671" type="curve"/>
      <point x="213" y="671"/>
      <point x="185" y="702"/>
      <point x="185" y="736" type="curve"/>
    </contour>
    <component base="a"/>
  </outline>
</glyph>
<glyph name="Lslash" format="1">
  <advance width="569"/>
  <unicode hex="0141"/>
  <outline>
    <contour>
      <point x="51" y="262" type="line"/>
      <point x="313" y="414" type="line"/>
      <point x="276" y="474" type="line"/>
      <point x="18" y="323" type="line"/>
    </contour>
    <component base="L" xOffset="7"/>
  </outline>
</glyph>
<glyph name="lslash" format="1">
  <advance width="348"/>
  <unicode hex="0142"/>
  <outline>
    <contour>
      <point x="62" y="262" type="line"/>
      <point x="324" y="414" type="line"/>
      <point x="287" y="474" type="line"/>
      <point x="29" y="323" type="line"/>
    </contour>
    <component base="l" xOffset="24"/>
  </outline>
</glyph>
<glyph name="Eng" format="1">
  <advance width="761"/>
  <unicode hex="014A"/>
  <outline>
    <contour>
      <point x="556" y="0" type="line"/>
      <point x="553" y="-87"/>
      <point x="537" y="-167"/>
      <point x="416" y="-167" type="curve"/>
      <point x="440" y="-238" type="line"/>
      <point x="614" y="-238"/>
      <point x="638" y="-109"/>
      <point x="641" y="0" type="curve"/>
    </contour>
    <component base="N"/>
  </outline>
</glyph>
<glyph name="eng" format="1">
  <advance width="621"/>
  <unicode hex="014B"/>
  <outline>
    <contour>
      <point x="188" y="425" type="line"/>
      <point x="171" y="500" type="line"/>
      <point x="20" y="500" type="line"/>
      <point x="20" y="426" type="line"/>
      <point x="100" y="426" type="line"/>
      <point x="100" y="74" type="line"/>
      <point x="20" y="74" type="line"/>
      <point x="20" y="0" type="line"/>
      <point x="272" y="0" type="line"/>
      <point x="272" y="74" type="line"/>
      <point x="188" y="74" type="line"/>
    </contour>
    <contour>
      <point x="158" y="276" type="line"/>
      <point x="188" y="276" type="line"/>
      <point x="188" y="358"/>
      <point x="227" y="437"/>
      <point x="311" y="437" type="curve" smooth="yes"/>
      <point x="401" y="437"/>
      <point x="433" y="395"/>
      <point x="433" y="285" type="curve" smooth="yes"/>
      <point x="433" y="0" type="line"/>
      <point x="521" y="0" type="line"/>
      <point x="521" y="319" type="line"/>
      <point x="521" y="415"/>
      <point x="472" y="515"/>
      <point x="340" y="515" type="curve" smooth="yes"/>
      <point x="247" y="515"/>
      <point x="158" y="453"/>
      <point x="158" y="347" type="curve" smooth="yes"/>
    </contour>
    <contour>
      <point x="433" y="0" type="line"/>
      <point x="430" y="-87"/>
      <point x="414" y="-167"/>
      <point x="293" y="-167" type="curve"/>
      <point x="317" y="-238" type="line"/>
      <point x="491" y="-238"/>
      <point x="518" y="-109"/>
      <point x="521" y="0" type="curve"/>
    </contour>
    <contour>
      <point x="524" y="0" type="move" name="connect"/>
    </contour>
    <contour>
      <point x="211" y="0" type="move" name="_connect"/>
    </contour>
  </outline>
</glyph>
<glyph name="OE" format="1">
  <advance width="882"/>
  <unicode hex="0152"/>
  <outline>
    <contour>
      <point x="30" y="180"/>
      <point x="97" y="63"/>
      <point x="198" y="19" type="curve" smooth="yes"/>
      <point x="228" y="6"/>
      <point x="261" y="0"/>
      <point x="396" y="0" type="curve"/>
      <point x="843" y="0" type="line"/>
      <point x="843" y="176" type="line"/>
      <point x="757" y="176" type="line"/>
      <point x="757" y="82" type="line"/>
      <point x="512" y="82" type="line"/>
      <point x="564" y="136"/>
      <point x="596" y="217"/>
      <point x="600" y="323" type="curve"/>
      <point x="737" y="323" type="line"/>
      <point x="737" y="405" type="line"/>
      <point x="598" y="405" type="line"/>
      <point x="589" y="495"/>
      <point x="557" y="567"/>
      <point x="508" y="617" type="curve"/>
      <point x="727" y="617" type="line"/>
      <point x="727" y="531" type="line"/>
      <point x="813" y="531" type="line"/>
      <point x="813" y="699" type="line"/>
      <point x="386" y="699" type="line"/>
      <point x="292" y="699"/>
      <point x="261" y="694"/>
      <point x="231" y="684" type="curve" smooth="yes"/>
      <point x="109" y="643"/>
      <point x="30" y="521"/>
      <point x="30" y="350" type="curve" smooth="yes"/>
    </contour>
    <contour>
      <point x="509" y="225"/>
      <point x="445" y="85"/>
      <point x="310" y="89" type="curve" smooth="yes"/>
      <point x="178" y="92"/>
      <point x="122" y="229"/>
      <point x="122" y="350" type="curve"/>
      <point x="122" y="478"/>
      <point x="179" y="612"/>
      <point x="310" y="612" type="curve" smooth="yes"/>
      <point x="442" y="612"/>
      <point x="509" y="478"/>
      <point x="509" y="350" type="curve" smooth="yes"/>
    </contour>
  </outline>
</glyph>
<glyph name="oe" format="1">
  <advance width="964"/>
  <unicode hex="0153"/>
  <outline>
    <contour>
      <point x="435" y="-15"/>
      <point x="514" y="109"/>
      <point x="514" y="250" type="curve" smooth="yes"/>
      <point x="514" y="393"/>
      <point x="435" y="519"/>
      <point x="291" y="519" type="curve" smooth="yes"/>
      <point x="146" y="519"/>
      <point x="70" y="393"/>
      <point x="70" y="250" type="curve" smooth="yes"/>
      <point x="70" y="109"/>
      <point x="146" y="-15"/>
      <point x="291" y="-15" type="curve" smooth="yes"/>
    </contour>
    <contour>
      <point x="188" y="74"/>
      <point x="162" y="162"/>
      <point x="162" y="250" type="curve" smooth="yes"/>
      <point x="162" y="332"/>
      <point x="188" y="437"/>
      <point x="291" y="437" type="curve" smooth="yes"/>
      <point x="394" y="437"/>
      <point x="422" y="332"/>
      <point x="422" y="250" type="curve" smooth="yes"/>
      <point x="422" y="162"/>
      <point x="394" y="74"/>
      <point x="291" y="74" type="curve" smooth="yes"/>
    </contour>
    <contour>
      <point x="850" y="226" type="line"/>
      <point x="851" y="234"/>
      <point x="851" y="260"/>
      <point x="851" y="269" type="curve" smooth="yes"/>
      <point x="851" y="305"/>
      <point x="846" y="357"/>
      <point x="824" y="401" type="curve" smooth="yes"/>
      <point x="788" y="471"/>
      <point x="728" y="519"/>
      <point x="642" y="519" type="curve" smooth="yes"/>
      <point x="497" y="519"/>
      <point x="427" y="398"/>
      <point x="427" y="250" type="curve" smooth="yes"/>
      <point x="427" y="100"/>
      <point x="492" y="-15"/>
      <point x="642" y="-15" type="curve" smooth="yes"/>
      <point x="741" y="-15"/>
      <point x="804" y="25"/>
      <point x="843" y="74" type="curve"/>
      <point x="783" y="131" type="line"/>
      <point x="753" y="89"/>
      <point x="716" y="67"/>
      <point x="644" y="67" type="curve" smooth="yes"/>
      <point x="544" y="67"/>
      <point x="514" y="145"/>
      <point x="514" y="250" type="curve" smooth="yes"/>
      <point x="514" y="332"/>
      <point x="537" y="437"/>
      <point x="642" y="437" type="curve" smooth="yes"/>
      <point x="738" y="437"/>
      <point x="764" y="325"/>
      <point x="764" y="288" type="curve" smooth="yes"/>
      <point x="764" y="280"/>
      <point x="764" y="234"/>
      <point x="763" y="226" type="curve"/>
    </contour>
    <contour>
      <point x="473" y="226" type="line"/>
      <point x="826" y="226" type="line"/>
      <point x="826" y="303" type="line"/>
      <point x="473" y="303" type="line"/>
    </contour>
  </outline>
</glyph>
<glyph name="breve" format="1">
  <advance width="474"/>
  <unicode hex="02D8"/>
  <outline>
    <contour>
      <point x="100" y="736" type="line"/>
      <point x="100" y="658"/>
      <point x="159" y="599"/>
      <point x="236" y="599" type="curve"/>
      <point x="311" y="599"/>
      <point x="374" y="658"/>
      <point x="374" y="736" type="curve"/>
      <point x="303" y="736" type="line"/>
      <point x="303" y="702"/>
      <point x="273" y="671"/>
      <point x="236" y="671" type="curve"/>
      <point x="199" y="671"/>
      <point x="171" y="702"/>
      <point x="171" y="736" type="curve"/>
    </contour>
  </outline>
</glyph>
<glyph name="ring" format="1">
  <advance width="833"/>
  <unicode hex="02DA"/>
  <outline>
    <contour>
      <point x="269" y="668"/>
      <point x="320" y="617"/>
      <point x="386" y="617" type="curve"/>
      <point x="451" y="617"/>
      <point x="505" y="668"/>
      <point x="505" y="735" type="curve"/>
      <point x="505" y="799"/>
      <point x="451" y="854"/>
      <point x="386" y="854" type="curve"/>
      <point x="320" y="854"/>
      <point x="269" y="799"/>
      <point x="269" y="735" type="curve"/>
    </contour>
    <contour>
      <point x="444" y="706"/>
      <point x="418" y="679"/>
      <point x="386" y="679" type="curve"/>
      <point x="354" y="679"/>
      <point x="330" y="706"/>
      <point x="330" y="735" type="curve"/>
      <point x="330" y="769"/>
      <point x="354" y="793"/>
      <point x="386" y="792" type="curve"/>
      <point x="418" y="792"/>
      <point x="444" y="768"/>
      <point x="444" y="735" type="curve"/>
    </contour>
  </outline>
</glyph>
<glyph name="gravecomb" format="1">
  <advance width="431"/>
  <unicode hex="0300"/>
  <outline>
    <contour>
      <point x="164" y="755" type="line" smooth="yes"/>
      <point x="331" y="626" type="line" smooth="yes"/>
      <point x="289" y="566" type="line" smooth="yes"/>
      <point x="100" y="673" type="line" smooth="yes"/>
    </contour>
  </outline>
</glyph>
<glyph name="acutecomb" format="1">
  <advance width="431"/>
  <unicode hex="0301"/>
  <outline>
    <contour>
      <point x="142" y="566" type="line" smooth="yes"/>
      <point x="100" y="626" type="line" smooth="yes"/>
      <point x="267" y="755" type="line" smooth="yes"/>
      <point x="331" y="673" type="line" smooth="yes"/>
    </contour>
  </outline>
</glyph>
<glyph name="uni0302" format="1">
  <advance width="600"/>
  <unicode hex="0302"/>
  <outline>
    <contour>
      <point x="300" y="755" type="line" smooth="yes"/>
      <point x="447" y="626" type="line" smooth="yes"/>
      <point x="408" y="570" type="line" smooth="yes"/>
      <point x="245" y="685" type="line" smooth="yes"/>
    </contour>
    <contour>
      <point x="191" y="570" type="line" smooth="yes"/>
      <point x="153" y="626" type="line" smooth="yes"/>
      <point x="300" y="755" type="line" smooth="yes"/>
      <point x="354" y="685" type="line" smooth="yes"/>
    </contour>
  </outline>
</glyph>
<glyph name="tildecomb" format="1">
  <advance width="600"/>
  <unicode hex="0303"/>
  <outline>
    <contour>
      <point x="138" y="655"/>
      <point x="175" y="711"/>
      <point x="241" y="711" type="curve" smooth="yes"/>
      <point x="308" y="711"/>
      <point x="335" y="667"/>
      <point x="376" y="667" type="curve" smooth="yes"/>
      <point x="412" y="667"/>
      <point x="437" y="693"/>
      <point x="448" y="705" type="curve"/>
      <point x="487" y="663" type="line"/>
      <point x="472" y="643"/>
      <point x="436" y="586"/>
      <point x="370" y="586" type="curve" smooth="yes"/>
      <point x="308" y="586"/>
      <point x="276" y="636"/>
      <point x="236" y="636" type="curve" smooth="yes"/>
      <point x="199" y="636"/>
      <point x="172" y="605"/>
      <point x="162" y="594" type="curve"/>
      <point x="124" y="635" type="line"/>
    </contour>
  </outline>
</glyph>
<glyph name="macroncomb" format="1">
  <advance width="600"/>
  <unicode hex="0304"/>
  <outline>
    <contour>
      <point x="175" y="617" type="line"/>
      <point x="425" y="617" type="line"/>
      <point x="425" y="699" type="line"/>
      <point x="175" y="699" type="line"/>
    </contour>
  </outline>
</glyph>
<glyph name="uni0306" format="1">
  <advance width="600"/>
  <unicode hex="0306"/>
  <outline>
    <contour>
      <point x="100" y="736" type="line"/>
      <point x="100" y="658"/>
      <point x="159" y="599"/>
      <point x="236" y="599" type="curve"/>
      <point x="311" y="599"/>
      <point x="374" y="658"/>
      <point x="374" y="736" type="curve"/>
      <point x="303" y="736" type="line"/>
      <point x="303" y="702"/>
      <point x="273" y="671"/>
      <point x="236" y="671" type="curve"/>
      <point x="199" y="671"/>
      <point x="171" y="702"/>
      <point x="171" y="736" type="curve"/>
    </contour>
  </outline>
</glyph>
<glyph name="uni0307" format="1">
  <advance width="340"/>
  <unicode hex="0307"/>
  <outline>
    <contour>
      <point x="185" y="585"/>
      <point x="214" y="613"/>
      <point x="214" y="649" type="curve" smooth="yes"/>
      <point x="214" y="685"/>
      <point x="185" y="713"/>
      <point x="151" y="713" type="curve" smooth="yes"/>
      <point x="115" y="713"/>
      <point x="86" y="685"/>
      <point x="86" y="649" type="curve" smooth="yes"/>
      <point x="86" y="613"/>
      <point x="115" y="585"/>
      <point x="151" y="585" type="curve" smooth="yes"/>
    </contour>
  </outline>
</glyph>
<glyph name="uni0308" format="1">
  <advance width="600"/>
  <unicode hex="0308"/>
  <outline>
    <contour>
      <point x="233" y="595"/>
      <point x="261" y="623"/>
      <point x="261" y="657" type="curve" smooth="yes"/>
      <point x="261" y="690"/>
      <point x="233" y="718"/>
      <point x="200" y="718" type="curve" smooth="yes"/>
      <point x="166" y="718"/>
      <point x="138" y="690"/>
      <point x="138" y="657" type="curve" smooth="yes"/>
      <point x="138" y="623"/>
      <point x="166" y="595"/>
      <point x="200" y="595" type="curve" smooth="yes"/>
    </contour>
    <contour>
      <point x="433" y="595"/>
      <point x="461" y="623"/>
      <point x="461" y="657" type="curve" smooth="yes"/>
      <point x="461" y="690"/>
      <point x="433" y="718"/>
      <point x="400" y="718" type="curve" smooth="yes"/>
      <point x="366" y="718"/>
      <point x="338" y="690"/>
      <point x="338" y="657" type="curve" smooth="yes"/>
      <point x="338" y="623"/>
      <point x="366" y="595"/>
      <point x="400" y="595" type="curve" smooth="yes"/>
    </contour>
  </outline>
</glyph>
<glyph name="uni030A" format="1">
  <advance width="436"/>
  <unicode hex="030A"/>
  <outline>
    <contour>
      <point x="106" y="612"/>
      <point x="154" y="564"/>
      <point x="217" y="564" type="curve"/>
      <point x="279" y="564"/>
      <point x="330" y="612"/>
      <point x="330" y="676" type="curve"/>
      <point x="330" y="737"/>
      <point x="279" y="789"/>
      <point x="217" y="789" type="curve"/>
      <point x="154" y="789"/>
      <point x="106" y="737"/>
      <point x="106" y="676" type="curve"/>
    </contour>
    <contour>
      <point x="275" y="647"/>
      <point x="249" y="620"/>
      <point x="217" y="620" type="curve"/>
      <point x="185" y="620"/>
      <point x="161" y="647"/>
      <point x="161" y="676" type="curve"/>
      <point x="161" y="710"/>
      <point x="185" y="734"/>
      <point x="217" y="733" type="curve"/>
      <point x="249" y="733"/>
      <point x="275" y="709"/>
      <point x="275" y="676" type="curve"/>
    </contour>
  </outline>
</glyph>
<glyph name="uni030B" format="1">
  <advance width="563"/>
  <unicode hex="030B"/>
  <outline>
    <contour>
      <point x="318" y="624" type="line" smooth="yes"/>
      <point x="262" y="657" type="line" smooth="yes"/>
      <point x="359" y="845" type="line" smooth="yes"/>
      <point x="444" y="801" type="line" smooth="yes"/>
    </contour>
    <contour>
      <point x="165" y="627" type="line" smooth="yes"/>
      <point x="107" y="657" type="line" smooth="yes"/>
      <point x="195" y="849" type="line" smooth="yes"/>
      <point x="281" y="810" type="line" smooth="yes"/>
    </contour>
  </outline>
</glyph>
<glyph name="uni030C" format="1">
  <advance width="600"/>
  <unicode hex="030C"/>
  <outline>
    <contour>
      <point x="408" y="755" type="line" smooth="yes"/>
      <point x="447" y="699" type="line" smooth="yes"/>
      <point x="300" y="570" type="line" smooth="yes"/>
      <point x="245" y="640" type="line" smooth="yes"/>
    </contour>
    <contour>
      <point x="300" y="570" type="line" smooth="yes"/>
      <point x="153" y="699" type="line" smooth="yes"/>
      <point x="191" y="755" type="line" smooth="yes"/>
      <point x="354" y="640" type="line" smooth="yes"/>
    </contour>
  </outline>
</glyph>
<glyph name="commaturnedabovecomb" format="1">
  <advance width="600"/>
  <unicode hex="0312"/>
  <outline>
    <contour>
      <point x="202" y="616"/>
      <point x="178" y="587"/>
      <point x="180" y="570" type="curve" smooth="yes"/>
      <point x="187" y="518"/>
      <point x="215" y="495"/>
      <point x="247" y="499" type="curve" smooth="yes"/>
      <point x="281" y="503"/>
      <point x="305" y="531"/>
      <point x="302" y="565" type="curve" smooth="yes"/>
      <point x="299" y="588"/>
      <point x="268" y="623"/>
      <point x="235" y="619" type="curve" smooth="yes"/>
    </contour>
    <contour>
      <point x="196" y="739"/>
      <point x="163" y="670"/>
      <point x="180" y="570" type="curve"/>
      <point x="291" y="590" type="line"/>
      <point x="256" y="634"/>
      <point x="239" y="695"/>
      <point x="281" y="745" type="curve"/>
      <point x="269" y="757"/>
      <point x="255" y="770"/>
      <point x="242" y="781" type="curve"/>
    </contour>
  </outline>
</glyph>
<glyph name="uni0326" format="1">
  <advance width="600"/>
  <unicode hex="0326"/>
  <outline>
    <contour>
      <point x="237" y="-100"/>
      <point x="243" y="-112"/>
      <point x="258" y="-127" type="curve" smooth="yes"/>
      <point x="274" y="-143"/>
      <point x="293" y="-191"/>
      <point x="261" y="-220" type="curve"/>
      <point x="285" y="-240" type="line"/>
      <point x="336" y="-216"/>
      <point x="361" y="-152"/>
      <point x="351" y="-91" type="curve" smooth="yes"/>
      <point x="344" y="-50"/>
      <point x="319" y="-35"/>
      <point x="287" y="-35" type="curve" smooth="yes"/>
      <point x="253" y="-35"/>
      <point x="237" y="-60"/>
      <point x="237" y="-81" type="curve"/>
    </contour>
    <contour>
      <point x="295" y="0" type="move" name="_bottom"/>
    </contour>
    <contour>
      <point x="295" y="-240" type="move" name="bottom"/>
    </contour>
  </outline>
</glyph>
<glyph name="uni0327" format="1">
  <advance width="600"/>
  <unicode hex="0327"/>
  <outline>
    <contour>
      <point x="131" y="-219" type="line"/>
      <point x="157" y="-238"/>
      <point x="204" y="-250"/>
      <point x="238" y="-250" type="curve" smooth="yes"/>
      <point x="278" y="-250"/>
      <point x="371" y="-239"/>
      <point x="371" y="-156" type="curve" smooth="yes"/>
      <point x="371" y="-102"/>
      <point x="330" y="-67"/>
      <point x="274" y="-60" type="curve"/>
      <point x="274" y="11" type="line"/>
      <point x="208" y="11" type="line"/>
      <point x="208" y="-115" type="line"/>
      <point x="243" y="-115"/>
      <point x="290" y="-114"/>
      <point x="290" y="-152" type="curve" smooth="yes"/>
      <point x="290" y="-180"/>
      <point x="256" y="-185"/>
      <point x="235" y="-185" type="curve" smooth="yes"/>
      <point x="207" y="-185"/>
      <point x="183" y="-177"/>
      <point x="172" y="-169" type="curve"/>
    </contour>
  </outline>
</glyph>
<glyph name="uni0328" format="1">
  <advance width="600"/>
  <unicode hex="0328"/>
  <outline>
    <contour>
      <point x="300" y="-116" type="line"/>
      <point x="256" y="-138"/>
      <point x="206" y="-132"/>
      <point x="206" y="-79" type="curve" smooth="yes"/>
      <point x="206" y="-41"/>
      <point x="237" y="6"/>
      <point x="250" y="18" type="curve"/>
      <point x="208" y="19" type="line"/>
      <point x="177" y="2"/>
      <point x="113" y="-30"/>
      <point x="113" y="-98" type="curve" smooth="yes"/>
      <point x="113" y="-198"/>
      <point x="251" y="-218"/>
      <point x="329" y="-150" type="curve"/>
    </contour>
  </outline>
</glyph>
<glyph name="strokeshortoverlaycomb" format="1">
  <advance width="600"/>
  <unicode hex="0335"/>
  <outline>
    <contour>
      <point x="25" y="223" type="line"/>
      <point x="545" y="223" type="line"/>
      <point x="545" y="305" type="line"/>
      <point x="25" y="305" type="line"/>
    </contour>
  </outline>
</glyph>
<glyph name="uni0336" format="1">
  <advance width="600"/>
  <unicode hex="0336"/>
  <outline>
    <contour>
      <point x="-5" y="223" type="line"/>
      <point x="605" y="223" type="line"/>
      <point x="605" y="305" type="line"/>
      <point x="-5" y="305" type="line"/>
    </contour>
  </outline>
</glyph>
<glyph name="Germandbls" format="1">
  <advance width="774"/>
  <unicode hex="1E9E"/>
  <outline>
    <contour>
      <point x="210" y="0" type="line"/>
      <point x="210" y="617" type="line"/>
      <point x="456" y="617" type="line"/>
      <point x="353" y="440" type="line"/>
      <point x="353" y="347" type="line"/>
      <point x="519" y="347" type="line" smooth="yes"/>
      <point x="582" y="347"/>
      <point x="658" y="303"/>
      <point x="658" y="202" type="curve" smooth="yes"/>
      <point x="658" y="111"/>
      <point x="589" y="73"/>
      <point x="522" y="73" type="curve" smooth="yes"/>
      <point x="414" y="73"/>
      <point x="370" y="199"/>
      <point x="363" y="247" type="curve"/>
      <point x="277" y="247" type="line"/>
      <point x="276" y="0" type="line"/>
      <point x="363" y="0" type="line"/>
      <point x="363" y="109" type="line"/>
      <point x="380" y="55"/>
      <point x="413" y="-16"/>
      <point x="547" y="-16" type="curve" smooth="yes"/>
      <point x="667" y="-16"/>
      <point x="754" y="65"/>
      <point x="754" y="202" type="curve" smooth="yes"/>
      <point x="754" y="392"/>
      <point x="612" y="440"/>
      <point x="479" y="440" type="curve" smooth="yes"/>
      <point x="463" y="440" type="line"/>
      <point x="574" y="617" type="line"/>
      <point x="574" y="699" type="line"/>
      <point x="30" y="699" type="line"/>
      <point x="30" y="617" type="line"/>
      <point x="118" y="617" type="line"/>
      <point x="118" y="82" type="line"/>
      <point x="30" y="82" type="line"/>
      <point x="30" y="0" type="line"/>
    </contour>
  </outline>
</glyph>
<glyph name="endash" format="1">
  <advance width="387"/>
  <unicode hex="2013"/>
  <outline>
    <contour>
      <point x="5" y="263" type="line"/>
      <point x="382" y="263" type="line"/>
      <point x="382" y="345" type="line"/>
      <point x="5" y="345" type="line"/>
    </contour>
  </outline>
</glyph>
<glyph name="emdash" format="1">
  <advance width="600"/>
  <unicode hex="2014"/>
  <outline>
    <contour>
      <point x="5" y="263" type="line"/>
      <point x="595" y="263" type="line"/>
      <point x="595" y="345" type="line"/>
      <point x="5" y="345" type="line"/>
    </contour>
  </outline>
</glyph>
<glyph name="quoteright" format="1">
  <advance width="210"/>
  <unicode hex="2019"/>
  <outline>
    <contour>
      <point x="142" y="633"/>
      <point x="166" y="662"/>
      <point x="164" y="679" type="curve" smooth="yes"/>
      <point x="159" y="731"/>
      <point x="129" y="754"/>
      <point x="97" y="750" type="curve" smooth="yes"/>
      <point x="63" y="746"/>
      <point x="39" y="718"/>
      <point x="42" y="684" type="curve" smooth="yes"/>
      <point x="45" y="661"/>
      <point x="76" y="626"/>
      <point x="109" y="630" type="curve" smooth="yes"/>
    </contour>
    <contour>
      <point x="88" y="615"/>
      <point x="99" y="562"/>
      <point x="57" y="512" type="curve"/>
      <point x="98" y="493" type="line"/>
      <point x="98" y="493"/>
      <point x="175" y="580"/>
      <point x="164" y="679" type="curve"/>
      <point x="53" y="659" type="line"/>
    </contour>
  </outline>
</glyph>
<glyph name="dagger" format="1">
  <advance width="417"/>
  <unicode hex="2020"/>
  <outline>
    <contour>
      <point x="20" y="435" type="line"/>
      <point x="397" y="435" type="line"/>
      <point x="397" y="517" type="line"/>
      <point x="20" y="517" type="line"/>
    </contour>
    <contour>
      <point x="168" y="689" type="line"/>
      <point x="168" y="0" type="line"/>
      <point x="250" y="0" type="line"/>
      <point x="250" y="689" type="line"/>
    </contour>
  </outline>
</glyph>
<glyph name="daggerdbl" format="1">
  <advance width="417"/>
  <unicode hex="2021"/>
  <outline>
    <contour>
      <point x="20" y="435" type="line"/>
      <point x="397" y="435" type="line"/>
      <point x="397" y="517" type="line"/>
      <point x="20" y="517" type="line"/>
    </contour>
    <contour>
      <point x="397" y="172" type="line"/>
      <point x="397" y="254" type="line"/>
      <point x="20" y="254" type="line"/>
      <point x="20" y="172" type="line"/>
    </contour>
    <contour>
      <point x="250" y="689" type="line"/>
      <point x="168" y="689" type="line"/>
      <point x="168" y="0" type="line"/>
      <point x="250" y="0" type="line"/>
    </contour>
  </outline>
</glyph>
<glyph name="bullet" format="1">
  <advance width="346"/>
  <unicode hex="2022"/>
  <outline>
    <contour>
      <point x="79" y="279"/>
      <point x="118" y="234"/>
      <point x="172" y="234" type="curve" smooth="yes"/>
      <point x="234" y="234"/>
      <point x="267" y="273"/>
      <point x="267" y="323" type="curve" smooth="yes"/>
      <point x="267" y="364"/>
      <point x="232" y="416"/>
      <point x="172" y="416" type="curve" smooth="yes"/>
      <point x="112" y="416"/>
      <point x="79" y="364"/>
      <point x="79" y="323" type="curve" smooth="yes"/>
    </contour>
  </outline>
</glyph>
<glyph name="guilsinglleft" format="1">
  <advance width="324"/>
  <unicode hex="2039"/>
  <outline>
    <contour>
      <point x="171" y="278" type="line"/>
      <point x="273" y="126" type="line"/>
      <point x="210" y="82" type="line"/>
      <point x="50" y="278" type="line"/>
      <point x="211" y="473" type="line"/>
      <point x="274" y="430" type="line"/>
    </contour>
  </outline>
</glyph>
<glyph name="guilsinglright" format="1">
  <advance width="324"/>
  <unicode hex="203A"/>
  <outline>
    <contour>
      <point x="113" y="473" type="line"/>
      <point x="274" y="278" type="line"/>
      <point x="114" y="82" type="line"/>
      <point x="51" y="126" type="line"/>
      <point x="153" y="278" type="line"/>
      <point x="50" y="430" type="line"/>
    </contour>
  </outline>
</glyph>
<glyph name="euro" format="1">
  <advance width="739"/>
  <unicode hex="20AC"/>
  <outline>
    <contour>
      <point x="43" y="369" type="line"/>
      <point x="477" y="369" type="line"/>
      <point x="504" y="451" type="line"/>
      <point x="70" y="451" type="line"/>
    </contour>
    <contour>
      <point x="43" y="212" type="line"/>
      <point x="425" y="212" type="line"/>
      <point x="453" y="294" type="line"/>
      <point x="71" y="294" type="line"/>
    </contour>
    <contour>
      <point x="119" y="111"/>
      <point x="252" y="-17"/>
      <point x="434" y="-17" type="curve" smooth="yes"/>
      <point x="538" y="-17"/>
      <point x="623" y="22"/>
      <point x="679" y="97" type="curve"/>
      <point x="611" y="157" type="line"/>
      <point x="575" y="101"/>
      <point x="513" y="68"/>
      <point x="434" y="70" type="curve" smooth="yes"/>
      <point x="282" y="74"/>
      <point x="212" y="221"/>
      <point x="212" y="350" type="curve" smooth="yes"/>
      <point x="212" y="488"/>
      <point x="283" y="631"/>
      <point x="434" y="631" type="curve" smooth="yes"/>
      <point x="505" y="631"/>
      <point x="590" y="574"/>
      <point x="560" y="486" type="curve"/>
      <point x="637" y="461" type="line"/>
      <point x="710" y="667" type="line"/>
      <point x="633" y="691" type="line"/>
      <point x="600" y="597" type="line"/>
      <point x="594" y="656"/>
      <point x="523" y="716"/>
      <point x="422" y="716" type="curve" smooth="yes"/>
      <point x="270" y="716"/>
      <point x="119" y="579"/>
      <point x="119" y="350" type="curve" smooth="yes"/>
    </contour>
  </outline>
</glyph>
<glyph name="trademark" format="1">
  <advance width="719"/>
  <unicode hex="2122"/>
  <outline>
    <contour>
      <point x="30" y="721" type="line"/>
      <point x="30" y="595" type="line"/>
      <point x="82" y="595" type="line"/>
      <point x="82" y="675" type="line"/>
      <point x="144" y="675" type="line"/>
      <point x="144" y="465" type="line"/>
      <point x="102" y="465" type="line"/>
      <point x="102" y="419" type="line"/>
      <point x="238" y="419" type="line"/>
      <point x="238" y="465" type="line"/>
      <point x="196" y="465" type="line"/>
      <point x="196" y="675" type="line"/>
      <point x="258" y="675" type="line"/>
      <point x="258" y="595" type="line"/>
      <point x="310" y="595" type="line"/>
      <point x="310" y="721" type="line"/>
    </contour>
    <contour>
      <point x="440" y="419" type="line"/>
      <point x="432" y="674" type="line"/>
      <point x="441" y="674" type="line"/>
      <point x="490" y="418" type="line"/>
      <point x="542" y="418" type="line"/>
      <point x="596" y="675" type="line"/>
      <point x="605" y="675" type="line"/>
      <point x="595" y="419" type="line"/>
      <point x="689" y="419" type="line"/>
      <point x="689" y="465" type="line"/>
      <point x="647" y="465" type="line"/>
      <point x="647" y="675" type="line"/>
      <point x="689" y="675" type="line"/>
      <point x="689" y="721" type="line"/>
      <point x="554" y="721" type="line"/>
      <point x="518" y="494" type="line"/>
      <point x="486" y="721" type="line"/>
      <point x="346" y="721" type="line"/>
      <point x="346" y="675" type="line"/>
      <point x="388" y="675" type="line"/>
      <point x="388" y="465" type="line"/>
      <point x="346" y="465" type="line"/>
      <point x="346" y="419" type="line"/>
    </contour>
  </outline>
</glyph>
<glyph name="minus" format="1">
  <advance width="417"/>
  <unicode hex="2212"/>
  <outline>
    <contour>
      <point x="20" y="283" type="line"/>
      <point x="397" y="283" type="line"/>
      <point x="397" y="365" type="line"/>
      <point x="20" y="365" type="line"/>
    </contour>
  </outline>
</glyph>
<glyph name="notequal" format="1">
  <advance width="600"/>
  <unicode hex="2260"/>
  <outline>
    <contour>
      <point x="231" y="70" type="line"/>
      <point x="390" y="571" type="line"/>
      <point x="308" y="600" type="line"/>
      <point x="147" y="99" type="line"/>
    </contour>
    <component base="equal"/>
  </outline>
</glyph>
<glyph name="_part.acute" format="1">
  <advance width="772"/>
  <outline>
    <contour>
      <point x="272" y="749" type="line" smooth="yes"/>
      <point x="242" y="814" type="line" smooth="yes"/>
      <point x="434" y="903" type="line" smooth="yes"/>
      <point x="478" y="821" type="line" smooth="yes"/>
    </contour>
  </outline>
</glyph>
<glyph name="_part.bdstem" format="1">
  <advance width="320"/>
  <outline>
    <contour>
      <point x="235" y="74" type="line"/>
      <point x="235" y="750" type="line"/>
      <point x="59" y="750" type="line"/>
      <point x="59" y="676" type="line"/>
      <point x="147" y="676" type="line"/>
      <point x="147" y="74" type="line"/>
      <point x="59" y="74" type="line"/>
      <point x="59" y="0" type="line"/>
      <point x="210" y="0" type="line"/>
    </contour>
  </outline>
</glyph>
<glyph name="_part.grave" format="1">
  <advance width="436"/>
  <outline>
    <contour>
      <point x="144" y="908" type="line" smooth="yes"/>
      <point x="336" y="819" type="line" smooth="yes"/>
      <point x="306" y="754" type="line" smooth="yes"/>
      <point x="100" y="826" type="line" smooth="yes"/>
    </contour>
  </outline>
</glyph>
<glyph name="_part.istem" format="1">
  <advance width="340"/>
  <outline>
    <contour>
      <point x="265" y="74" type="line"/>
      <point x="205" y="74" type="line"/>
      <point x="205" y="500" type="line"/>
      <point x="75" y="500" type="line"/>
      <point x="75" y="426" type="line"/>
      <point x="117" y="426" type="line"/>
      <point x="117" y="74" type="line"/>
      <point x="75" y="74" type="line"/>
      <point x="75" y="0" type="line"/>
      <point x="265" y="0" type="line"/>
    </contour>
    <contour>
      <point x="29" y="0" type="line"/>
      <point x="117" y="0" type="line"/>
      <point x="117" y="74" type="line"/>
      <point x="29" y="74" type="line"/>
    </contour>
    <contour>
      <point x="205" y="0" type="line"/>
      <point x="293" y="0" type="line"/>
      <point x="293" y="74" type="line"/>
      <point x="205" y="74" type="line"/>
    </contour>
    <contour>
      <point x="29" y="426" type="line"/>
      <point x="117" y="426" type="line"/>
      <point x="117" y="500" type="line"/>
      <point x="29" y="500" type="line"/>
    </contour>
  </outline>
</glyph>
<glyph name="_part.pdbqbowl" format="1">
  <advance width="638"/>
  <outline>
    <contour>
      <point x="271" y="515"/>
      <point x="206" y="445"/>
      <point x="193" y="426" type="curve"/>
      <point x="142" y="252" type="line"/>
      <point x="196" y="73" type="line"/>
      <point x="204" y="46"/>
      <point x="271" y="-19"/>
      <point x="364" y="-19" type="curve" smooth="yes"/>
      <point x="518" y="-19"/>
      <point x="588" y="107"/>
      <point x="588" y="250" type="curve" smooth="yes"/>
      <point x="588" y="391"/>
      <point x="504" y="515"/>
      <point x="372" y="515" type="curve" smooth="yes"/>
    </contour>
    <contour>
      <point x="463" y="434"/>
      <point x="497" y="338"/>
      <point x="497" y="250" type="curve" smooth="yes"/>
      <point x="497" y="168"/>
      <point x="459" y="56"/>
      <point x="348" y="56" type="curve" smooth="yes"/>
      <point x="252" y="56"/>
      <point x="202" y="145"/>
      <point x="202" y="250" type="curve" smooth="yes"/>
      <point x="202" y="361"/>
      <point x="255" y="434"/>
      <point x="352" y="434" type="curve" smooth="yes"/>
    </contour>
  </outline>
</glyph>
<glyph name="_part.shoulder" format="1">
  <advance width="655"/>
  <outline>
    <contour>
      <point x="174" y="276" type="line"/>
      <point x="204" y="276" type="line"/>
      <point x="204" y="358"/>
      <point x="243" y="437"/>
      <point x="329" y="437" type="curve" smooth="yes"/>
      <point x="421" y="437"/>
      <point x="452" y="395"/>
      <point x="452" y="285" type="curve" smooth="yes"/>
      <point x="452" y="0" type="line"/>
      <point x="540" y="0" type="line"/>
      <point x="540" y="319" type="line"/>
      <point x="540" y="415"/>
      <point x="492" y="515"/>
      <point x="358" y="515" type="curve" smooth="yes"/>
      <point x="263" y="515"/>
      <point x="174" y="453"/>
      <point x="174" y="347" type="curve" smooth="yes"/>
    </contour>
    <contour>
      <point x="540" y="0" type="line"/>
      <point x="620" y="0" type="line"/>
      <point x="620" y="74" type="line"/>
      <point x="540" y="74" type="line"/>
    </contour>
    <contour>
      <point x="540" y="0" type="move" name="connect"/>
    </contour>
    <contour>
      <point x="227" y="0" type="move" name="_connect"/>
    </contour>
  </outline>
</glyph>
